<?xml version="1.0" standalone="no"?>
<!DOCTYPE svg PUBLIC "-//W3C//DTD SVG 20010904//EN"
 "http://www.w3.org/TR/2001/REC-SVG-20010904/DTD/svg10.dtd">
<svg version="1.0" xmlns="http://www.w3.org/2000/svg"
 width="700.000000pt" height="700.000000pt" viewBox="0 0 700.000000 700.000000"
 preserveAspectRatio="xMidYMid meet">
<metadata>
Created by potrace 1.11, written by Peter Selinger 2001-2013
</metadata>
<g transform="translate(0.000000,700.000000) scale(0.100000,-0.100000)"
fill="#000000" stroke="none">
<path d="M924 6721 c-2 -2 -4 -131 -4 -286 l0 -281 -337 0 -338 0 -2 -2642 -1
-2642 339 0 339 0 0 -272 0 -273 2912 1 c1602 1 2920 2 2929 3 14 1 16 52 15
514 l-1 512 -480 1 c-264 0 -487 -1 -495 -3 -13 -4 -15 -42 -15 -284 1 -245
-1 -279 -15 -280 -19 -1 -541 -1 -557 0 -9 1 -12 64 -12 249 0 136 0 263 0
282 l-1 36 -272 -1 c-150 0 -279 1 -285 3 -10 3 -13 125 -13 563 l0 559 48 1
c26 0 154 0 285 0 229 0 237 0 238 19 0 11 0 130 0 265 0 135 0 254 0 265 -1
20 -8 20 -286 20 l-285 0 0 -285 0 -285 -550 0 c-303 1 -554 -1 -558 -4 -4 -2
-7 -255 -7 -563 l0 -558 -285 0 -285 1 0 -283 1 -283 -26 -1 c-31 -1 -1487 -1
-1516 0 -21 1 -21 3 -21 276 0 151 -3 279 -7 283 -4 4 -132 7 -284 7 l-277 1
-3 2167 -2 2167 32 1 c130 4 530 0 535 -5 3 -3 6 -979 6 -2168 l0 -2163 279 0
c193 1 281 4 286 12 4 6 7 387 6 847 l-1 836 496 0 496 0 0 -276 c0 -151 2
-279 5 -284 3 -5 131 -8 285 -7 l280 2 0 280 1 280 -286 5 -285 5 0 473 c0
261 4 476 8 479 4 3 132 5 283 5 151 0 275 3 275 7 5 23 3 553 -2 557 -6 3
-283 7 -469 5 l-95 -1 0 -284 1 -284 -497 0 -496 0 1 839 1 839 -35 1 c-19 0
-145 1 -280 1 l-245 1 0 281 c1 155 4 286 7 291 4 7 262 10 775 10 l768 0 0
-290 0 -290 285 0 285 0 0 -555 0 -555 535 -2 c294 -1 545 -3 558 -3 l22 0 0
-284 0 -285 280 1 c155 0 283 -2 286 -5 3 -3 6 -216 7 -473 l2 -469 786 0 786
-1 0 473 0 473 -46 1 c-25 0 -379 1 -786 2 l-740 2 -2 278 c-1 153 -4 281 -7
284 -2 3 -131 5 -285 4 l-281 0 0 554 c0 437 3 555 13 556 6 0 135 1 285 1
243 1 272 3 273 17 0 9 1 140 2 291 l2 275 280 1 c154 0 285 -1 290 -3 7 -2
11 -97 10 -281 -1 -152 1 -282 2 -288 3 -8 145 -11 497 -11 l493 0 1 501 c0
276 -1 508 -4 516 -3 13 -337 15 -2925 15 -1606 0 -2923 -2 -2925 -4z m3706
-737 l0 -291 -550 0 c-386 0 -553 4 -558 11 -6 10 -12 553 -6 566 1 3 253 6
558 6 l556 0 0 -292z m0 -4911 c0 -263 -1 -283 -17 -284 -90 -4 -1082 0 -1089
4 -10 6 -12 536 -2 552 4 7 188 11 557 11 l551 0 0 -283z"/>
</g>
</svg>
