<?xml version="1.0" encoding="utf-8"?>
<!-- Generator: Adobe Illustrator 18.1.1, SVG Export Plug-In . SVG Version: 6.00 Build 0)  -->
<svg version="1.1" id="Layer_1" xmlns="http://www.w3.org/2000/svg" xmlns:xlink="http://www.w3.org/1999/xlink" x="0px" y="0px"
	 viewBox="0 232 1024 304" enable-background="new 0 232 1024 304" xml:space="preserve">
<g display="none">
	<path display="inline" fill="#7f8b8d" d="M325.8,363.3c0-0.2-87.4,0-87.4,0C109.3,363.3,4.4,468.1,4.4,597.4
		c0,129.4,104.8,234.2,234.2,234.2l164.2-0.2c41.3,0,74.7-33.1,74.7-74.5l0.2-142.8l113.5,179c15.3,23.2,41.7,38.6,71.7,38.6
		c47.4,0,85.8-38.4,85.8-85.8V614l113.5,179c15.3,23.2,41.7,38.6,71.7,38.6c47.4,0,85.8-38.4,85.8-85.8v-383h-58.5v383
		c0,15.2-12.2,27.4-27.4,27.4c-9.5,0-17.8-4.7-22.7-12L708.9,442.9c-1.8-2.8-5-4.5-8.6-4.5c-5.7,0-10.3,4.6-10.3,10.3v297.1
		c0,15.2-12.2,27.4-27.4,27.4c-9.5,0-17.8-4.7-22.7-12L438,442.9c-1.8-2.8-5-4.5-8.6-4.5c-5.7,0-10.3,4.6-10.3,10.3v308.1
		c0,9-7.3,16.2-16.2,16.2l-164.2-0.2c-97,0-175.7-78.6-175.7-175.7s78.6-175.7,175.7-175.7H326v-58.2L325.8,363.3L325.8,363.3z"/>
	<path display="inline" fill="#7f8b8d" d="M335.3,698.1c4.6,0,8.3-3.7,8.3-8.3v-241c0-47.4,38.4-85.8,85.8-85.8
		c30.1,0,56.5,15.4,71.8,38.8l113.1,177.5l0.2-130.4c0-47.4,38.4-85.8,85.8-85.8c30.1,0,56.5,15.4,71.8,38.8l113.1,177.4V363h58.9
		l-0.2,383c0,5.7-4.6,10.3-10.3,10.3c-3.4,0-6.3-1.6-8.3-4.1L723,433.6c-4.9-7.3-13.2-12-22.7-12c-15.2,0-27.4,12.2-27.4,27.4v297.1
		c0,5.7-4.6,10.3-10.3,10.3c-3.4,0-6.3-1.6-8.3-4.1L452.2,433.5c-4.9-7.3-13.2-12-22.7-12c-15.2,0-27.4,12.2-27.4,27.4l0.2,299.5
		c0,4.6-3.7,8.3-8.3,8.3H238.6C150.9,756.6,79.9,685,79.9,597.4s71-159.2,158.6-159.2c0,0,87.4-0.4,87.4,0s0,59,0,59h-87.4
		c-55.3,0-100.2,44.9-100.2,100.2c0,55.3,44.8,100.7,100.2,100.7H335.3z"/>
</g>
<g display="none">
	<path display="inline" fill="#7f8b8d" d="M622.6,543.8c-16,0-28.9,4.3-42.2,10.8c0.2-37.9,0.6-70.9,1.4-83.4l-77.9,15v7l7.5,1
		c10.8,1.4,15,7.9,16.2,22.3c2.5,27.8,2.1,176.9,0,200.8c21,4.7,43.7,8.3,66.4,8.3c61.8,0,99-38.2,99-98.6
		C693.3,578.5,663,543.8,622.6,543.8 M595.4,713.3c-4.5,0-10.2-0.8-13.4-1.4c-1.2-16.8-2-85.7-1.8-145.8c7.1-2.4,12-3,18.2-3
		c25.6,0,39.8,29.4,40,66.8C638.6,677.2,620.8,713.3,595.4,713.3z"/>
	<path display="inline" fill="#7f8b8d" d="M210.2,476.7H5.4v9.8l10.8,1.4c15.6,2.2,21.7,12,23.5,34.1c3.6,42.2,3,117.8,0,154.2
		c-1.8,22.1-7.8,31.7-23.5,33.9l-10.8,1.4v9.9H137v-9.9l-13.8-1.4c-15.6-2.2-21.7-12-23.5-33.9c-1.4-15-2.1-40.4-2.4-70.1l27.2,1
		c18.1,0.6,25.8,14,30,33.9h10.2v-82.8h-10c-4.3,19.8-11.9,33.3-30,33.9l-27.2,0.6c-0.2-39,0.6-76.7,2.4-99.3h40.4
		c31.5,0,48.3,20.1,59,55.4l12.2-3.3L210.2,476.7"/>
	<path display="inline" fill="#7f8b8d" d="M276.7,541.8c58.2,0,87.1,39.4,87.1,91.5c0,50.8-32.6,92.4-90.8,92.4
		s-87.1-39.4-87.1-91.5C185.9,583.4,218.6,541.8,276.7,541.8 M273.8,553c-25.8,0-32.9,34.9-32.9,80.6c0,44.6,11.4,80.6,35.3,80.6
		c25.8,0,32.9-34.7,32.9-80.6C309,589,297.6,553,273.8,553z"/>
	<path display="inline" fill="#7f8b8d" d="M707.5,635.2c0-48.1,30.4-93.4,90.3-93.4c48.9,0,72.1,36.2,72.3,83.6h-109
		c-1.2,42.9,20.6,74.5,62.2,74.5c18.3,0,28.1-4.5,39.2-13l5.1,6.2c-12,16.8-37.2,32.6-70.7,32.6
		C744.6,725.7,707.5,688.4,707.5,635.2 M761.8,613.2l54.6-1.2c0.2-24.2-3.6-58.7-23.2-58.7C773.4,553.3,762.2,586,761.8,613.2z"/>
	<path display="inline" fill="#7f8b8d" d="M1008.2,551.3c-13-5.9-32.3-9.5-52.6-9.5c-43.8,0-70.4,25.6-70.4,55.6
		c0,30.9,19.9,43,47.5,52.8c29.7,10.6,37.5,18.9,37.5,32.6c0,14.2-10.4,27.4-29,27.4c-22.1,0-38.6-13-51.4-48.6l-9,2.4l1.6,51
		c14.6,5.8,39.2,10.8,61.5,10.8c46.3,0,74.6-22.6,74.6-59.4c0-24.7-12-38.2-42.5-49.9c-32.9-12.8-44.2-20.7-44.2-36
		s10.2-25.8,24.2-25.8c21.1,0,35.5,13,45,43.8l9-2.2L1008.2,551.3"/>
	<path display="inline" fill="#7f8b8d" d="M515.7,546.6c-19.7-11.8-55.4-6.2-73.5,35.5l0.8-40.6l-77.6,15v7l7.7,1
		c10.8,1.6,15,7.9,16.2,22.3c2.5,27.8,2.1,77.5,0,101.4c-1.4,14.6-5.4,20.9-16.2,22.3l-7.7,1v9.9h108.1v-9.9l-14.2-1
		c-10.8-1.4-15-7.8-16.4-22.3c-2-21.9-2.4-65.6-0.6-94.2c5.1-8.6,30.6-15.6,54.2,0.2L515.7,546.6"/>
	<path display="inline" fill="#7f8b8d" d="M622.6,543.8c-16,0-28.9,4.3-42.2,10.8c0.2-37.9,0.6-70.9,1.4-83.4l-77.9,15v7l7.5,1
		c10.8,1.4,15,7.9,16.2,22.3c2.5,27.8,2.1,176.9,0,200.8c21,4.7,43.7,8.3,66.4,8.3c61.8,0,99-38.2,99-98.6
		C693.3,578.5,663,543.8,622.6,543.8 M595.4,713.3c-4.5,0-10.2-0.8-13.4-1.4c-1.2-16.8-2-85.7-1.8-145.8c7.1-2.4,12-3,18.2-3
		c25.6,0,39.8,29.4,40,66.8C638.6,677.2,620.8,713.3,595.4,713.3z"/>
	<path display="inline" fill="#7f8b8d" d="M210.2,476.7H5.4v9.8l10.8,1.4c15.6,2.2,21.7,12,23.5,34.1c3.6,42.2,3,117.8,0,154.2
		c-1.8,22.1-7.8,31.7-23.5,33.9l-10.8,1.4v9.9H137v-9.9l-13.8-1.4c-15.6-2.2-21.7-12-23.5-33.9c-1.4-15-2.1-40.4-2.4-70.1l27.2,1
		c18.1,0.6,25.8,14,30,33.9h10.2v-82.8h-10c-4.3,19.8-11.9,33.3-30,33.9l-27.2,0.6c-0.2-39,0.6-76.7,2.4-99.3h40.4
		c31.5,0,48.3,20.1,59,55.4l12.2-3.3L210.2,476.7"/>
	<path display="inline" fill="#7f8b8d" d="M276.7,541.8c58.2,0,87.1,39.4,87.1,91.5c0,50.8-32.6,92.4-90.8,92.4
		s-87.1-39.4-87.1-91.5C185.9,583.4,218.6,541.8,276.7,541.8 M273.8,553c-25.8,0-32.9,34.9-32.9,80.6c0,44.6,11.4,80.6,35.3,80.6
		c25.8,0,32.9-34.7,32.9-80.6C309,589,297.6,553,273.8,553z"/>
	<path display="inline" fill="#7f8b8d" d="M707.5,635.2c0-48.1,30.4-93.4,90.3-93.4c48.9,0,72.1,36.2,72.3,83.6h-109
		c-1.2,42.9,20.6,74.5,62.2,74.5c18.3,0,28.1-4.5,39.2-13l5.1,6.2c-12,16.8-37.2,32.6-70.7,32.6
		C744.6,725.7,707.5,688.4,707.5,635.2 M761.8,613.2l54.6-1.2c0.2-24.2-3.6-58.7-23.2-58.7C773.4,553.3,762.2,586,761.8,613.2z"/>
	<path display="inline" fill="#7f8b8d" d="M1008.2,551.3c-13-5.9-32.3-9.5-52.6-9.5c-43.8,0-70.4,25.6-70.4,55.6
		c0,30.9,19.9,43,47.5,52.8c29.7,10.6,37.5,18.9,37.5,32.6c0,14.2-10.4,27.4-29,27.4c-22.1,0-38.6-13-51.4-48.6l-9,2.4l1.6,51
		c14.6,5.8,39.2,10.8,61.5,10.8c46.3,0,74.6-22.6,74.6-59.4c0-24.7-12-38.2-42.5-49.9c-32.9-12.8-44.2-20.7-44.2-36
		s10.2-25.8,24.2-25.8c21.1,0,35.5,13,45,43.8l9-2.2L1008.2,551.3"/>
	<path display="inline" fill="#7f8b8d" d="M515.7,546.6c-19.7-11.8-55.4-6.2-73.5,35.5l0.8-40.6l-77.6,15v7l7.7,1
		c10.8,1.6,15,7.9,16.2,22.3c2.5,27.8,2.1,77.5,0,101.4c-1.4,14.6-5.4,20.9-16.2,22.3l-7.7,1v9.9h108.1v-9.9l-14.2-1
		c-10.8-1.4-15-7.8-16.4-22.3c-2-21.9-2.4-65.6-0.6-94.2c5.1-8.6,30.6-15.6,54.2,0.2L515.7,546.6"/>
</g>
<g display="none">
	<g display="inline">
		<path fill="#ACA8A1" d="M385.6,556.4v63.2h-23.1v-63.2h-23.4v-20.1h69.8v20.1H385.6z"/>
		<path fill="#ACA8A1" d="M462.8,594.5h-36.6c0.7,6.9,4.7,10,10.6,10c5.4,0,10-1.2,16.2-4.4l8.2,13.7c-7.8,4.6-15.7,7.1-25.4,7.1
			c-18.8,0-29.2-13.4-29.2-32.5c0-21.5,12.2-32.6,28.6-32.6c17.1,0,27.8,11.3,27.8,34.5C463,592.1,463,593.4,462.8,594.5z
			 M434.5,571.6c-4.9,0-7.6,3.4-8.3,9.5H444C443,574.9,440.8,571.6,434.5,571.6z"/>
		<path fill="#ACA8A1" d="M502.7,620.9c-18.3,0-29.3-11.7-29.3-32.7c0-19.2,9.8-32.4,29.8-32.4c11.8,0,18.6,5.4,24.1,14.3
			l-14.8,11.2c-3-5.4-5-8.1-9.7-8.1c-5.4,0-8.2,5.4-8.2,15.4s3,15,8.8,15c4.1,0,6.9-2.2,10.8-8.1l13.6,10.6
			C520.6,616.7,513.8,620.9,502.7,620.9z"/>
		<path fill="#ACA8A1" d="M575.8,619.6v-35.4c0-8.1-2.7-10.2-7.1-10.2c-4.6,0-7.3,2.2-7.3,10v35.7h-21.4v-78.2l21.4-8.6v28.5
			c3.9-3,8.3-5.4,15.7-5.4c13.7,0,20.2,9.2,20.2,25.6v38.2L575.8,619.6L575.8,619.6z"/>
		<path fill="#ACA8A1" d="M648.6,620.9c-24.8,0-38-18.3-38-43c0-26.8,15.7-43,38.1-43c20.5,0,28.6,8.8,34.3,24.6l-21,8.2
			c-3-7.8-5.8-12.6-13.4-12.6c-9.7,0-13.8,9.7-13.8,22.9c0,12.7,4.1,22.9,14.1,22.9c7.3,0,10.3-3.9,14.9-11.8l19.5,10.3
			C677.7,610.3,668.4,620.9,648.6,620.9z"/>
		<path fill="#ACA8A1" d="M735.9,580.6c-2.7-3-5.8-5.2-10-5.2c-5.3,0-8.5,2.5-8.5,10.1v34.1H696v-62.5h21.4v4.6
			c3.7-3.6,7.8-5.8,13.4-5.8c4.6,0,7.6,1,10.1,2.6L735.9,580.6z"/>
		<path fill="#ACA8A1" d="M786.9,619.6v-4.2c-3.8,3-8.3,5.5-15.6,5.5c-13.7,0-20.2-9.2-20.2-25.6v-38.2h21.5v35.4
			c0,8.1,2.7,10.2,7.1,10.2c4.4,0,7.1-2.2,7.1-10v-35.7h21.5v62.5H786.9L786.9,619.6z"/>
		<path fill="#ACA8A1" d="M859.8,619.6v-35.4c0-8.1-2.7-10.2-7.1-10.2c-4.6,0-7.3,2.2-7.3,10v35.7h-21.4v-62.5h21.4v4.2
			c3.9-3,8.3-5.4,15.7-5.4c13.7,0,20.2,9.2,20.2,25.6v38.2L859.8,619.6L859.8,619.6z"/>
		<path fill="#ACA8A1" d="M923,620.9c-18.3,0-29.3-11.7-29.3-32.7c0-19.2,9.8-32.4,29.8-32.4c11.8,0,18.6,5.4,24.1,14.3l-14.8,11.2
			c-3-5.4-5-8.1-9.7-8.1c-5.5,0-8.2,5.4-8.2,15.4s3,15,8.8,15c4.1,0,6.9-2.2,10.8-8.1l13.6,10.6C940.9,616.7,934.1,620.9,923,620.9z
			"/>
		<path fill="#ACA8A1" d="M996.1,619.6v-35.4c0-8.1-2.7-10.2-7.1-10.2c-4.6,0-7.3,2.2-7.3,10v35.7h-21.4v-78.2l21.4-8.6v28.5
			c3.9-3,8.3-5.4,15.7-5.4c13.7,0,20.2,9.2,20.2,25.6v38.2L996.1,619.6L996.1,619.6z"/>
	</g>
	<g display="inline">
		<polygon fill="#ACA8A1" points="4.8,500.8 4.8,548 52.8,548 52.8,643.2 100,643.2 100,548 148,548 148,500.8 		"/>
		<polygon fill="#ACA8A1" points="195.2,596 195.2,548 148,548 148,643.2 290.4,643.2 290.4,596 		"/>
		<rect x="195.2" y="500.8" fill="#ACA8A1" width="95.2" height="47.2"/>
	</g>
</g>
<g>
	<path fill="#7f8b8d" d="M6.4,237.9h310.1v292.3H6.4V237.9z M196.9,377.4c0,0,27-11.5,26.8-42.2c0,0,4.1-50-62.2-56.2H87.9v210h84.4
		c0,0,70.5,0.3,70.5-59.3C242.8,429.8,244.4,389.4,196.9,377.4z M125.2,311.7h30.1c31.3,1.6,30.1,24.9,30.1,24.9
		c0,28.9-34.5,29.4-34.5,29.4h-25.7V311.7z M204.3,426.8c0,31.7-39.5,29.8-39.5,29.8h-39.6v-57.4h39.5
		C205.5,399,204.3,426.8,204.3,426.8z"/>
	<path fill="#7f8b8d" d="M357,237.9H667v292.3H357V237.9z M547.5,377.4c0,0,27-11.5,26.8-42.2c0,0,4.1-50-62.2-56.2h-73.6v210h84.4
		c0,0,70.5,0.3,70.5-59.3C593.4,429.8,595,389.4,547.5,377.4z M475.8,311.7h30.1c31.3,1.6,30.1,24.9,30.1,24.9
		c0,28.9-34.5,29.4-34.5,29.4h-25.7V311.7z M554.9,426.8c0,31.7-39.5,29.8-39.5,29.8h-39.6v-57.4h39.5
		C556.1,399,554.9,426.8,554.9,426.8z"/>
	<path fill="#7f8b8d" d="M707.6,530.1h310.1V237.9H707.6V530.1z M954.5,293.6v38.8c0,0-37.9-23.3-79.8-23.7c0,0-78-1.5-81.6,74.8
		c0,0-2.8,70.3,80.7,74.3c0,0,35.1,4.3,82.6-26.1V472c0,0-63.7,37.9-137.6,8.7c0,0-62.1-22.7-64.5-97c0,0-2.5-76.5,80.2-101.8
		c0,0,22.1-8.4,61.8-4.7C896.4,277.1,920.1,279.3,954.5,293.6z"/>
</g>
</svg>
