<?xml version="1.0" encoding="utf-8"?>
<!-- Generator: Adobe Illustrator 18.1.1, SVG Export Plug-In . SVG Version: 6.00 Build 0)  -->
<svg version="1.1" id="Layer_1" xmlns="http://www.w3.org/2000/svg" xmlns:xlink="http://www.w3.org/1999/xlink" x="0px" y="0px"
	 viewBox="171.1 0 636.3 768" enable-background="new 171.1 0 636.3 768" xml:space="preserve">
<g display="none">
	<g display="inline">
		<path fill="#ACA8A1" d="M6454.4,289.9c0-0.6-229.6,0-229.6,0c-339.6,0-615.3,275.5-615.3,615.3c0,340,275.5,615.5,615.5,615.5
			l431.7-0.4c108.5,0,196.4-87.1,196.4-195.8l0.4-375.4l298.4,470.6c40.2,61,109.6,101.4,188.4,101.4
			c124.5,0,225.6-100.9,225.6-225.6V949l298.4,470.6c40.2,61,109.6,101.4,188.4,101.4c124.5,0,225.6-100.9,225.6-225.6V288.6h-153.7
			v1006.7c0,40-32.2,71.9-71.9,71.9c-25,0-46.9-12.4-59.7-31.5l-531.6-836.3c-4.8-7.4-13.2-11.8-22.5-11.8
			c-14.9,0-27.1,12.2-27.1,27.1v781c0,40-32.2,71.9-71.9,71.9c-25,0-46.9-12.4-59.7-31.5l-531-836.6c-4.8-7.4-13.2-11.8-22.5-11.8
			c-14.9,0-27.1,12.2-27.1,27.1v809.8c0,23.6-19.1,42.7-42.7,42.7l-431.7-0.4c-255.1,0-461.8-206.7-461.8-461.8
			s206.7-461.8,461.8-461.8h229.6V290.3h-0.4V289.9z"/>
		<path fill="#ACA8A1" d="M6479.5,1170c12.2,0,21.9-9.7,21.9-21.9V514.9c0-124.5,100.9-225.6,225.6-225.6
			c79.1,0,148.5,40.6,188.8,102l297.4,466.4l0.4-342.8c0-124.5,100.9-225.6,225.6-225.6c79.1,0,148.5,40.6,188.8,102l297.4,466.4
			V289.3h154.8l-0.6,1006.7c0,14.9-12.2,27.1-27.1,27.1c-9,0-16.6-4.2-21.9-10.7l-532-837.6c-12.8-19.1-34.7-31.5-59.7-31.5
			c-40,0-71.9,32.2-71.9,71.9V1296c0,14.9-12.2,27.1-27.1,27.1c-9,0-16.6-4.2-21.9-10.7l-531.6-837.6
			c-12.8-19.1-34.7-31.5-59.7-31.5c-40,0-71.9,32.2-71.9,71.9l0.4,787.3c0,12.2-9.7,21.9-21.9,21.9h-408.4
			c-230.5-0.4-417-188.4-417-418.9s186.7-418.5,417-418.5c0,0,229.6-1.1,229.6,0c0,1.1,0,155.2,0,155.2h-229.6
			c-145.3,0-263.3,118-263.3,263.3s118,264.8,263.3,264.8h254.7V1170z"/>
	</g>
	<g display="inline">
		<path fill="#ACA8A1" d="M7234.8,761.2c-42.1,0-75.9,11.4-111,28.4c0.4-99.7,1.5-186.3,3.8-219.3l-204.8,39.5v18.3l19.8,2.5
			c28.4,3.8,39.5,20.8,42.7,58.7c6.5,73,5.5,465,0,527.8c55.1,12.4,114.8,21.9,174.5,21.9c162.3,0,260.3-100.3,260.3-259.3
			C7420.5,852.4,7341,761.2,7234.8,761.2 M7163.3,1206.8c-11.8,0-26.7-2.1-35.1-3.6c-3.2-44.2-5.3-225.2-4.8-383.4
			c18.7-6.3,31.5-8,47.9-8c67.3,0,104.7,77.4,105.1,175.6C7276.7,1112,7230,1206.8,7163.3,1206.8z"/>
		<path fill="#ACA8A1" d="M6150.8,585h-538.6v25.7l28.4,3.8c41,5.9,57,31.5,61.8,89.6c9.5,111,8,309.6,0,405.2
			c-4.8,58-20.4,83.3-61.8,89.2l-28.4,3.8v26.1h345.9v-26.1l-36.4-3.8c-41-5.9-57-31.5-61.8-89.2c-3.4-39.5-5.5-106.2-6.3-184.2
			l71.5,2.5c47.5,1.5,67.7,36.8,78.9,89.2h26.7V799h-26.3c-11.4,52.2-31.3,87.5-78.9,89.2l-71.5,1.7c-0.6-102.6,1.5-201.7,6.3-261
			h106.2c82.9,0,127,52.8,155.2,145.7l32-8.6L6150.8,585"/>
		<path fill="#ACA8A1" d="M6325.5,755.9c153.1,0,229,103.7,229,240.6c0,133.5-85.8,242.9-238.7,242.9c-152.9,0-229-103.7-229-240.6
			C6086.8,865.3,6172.6,755.9,6325.5,755.9 M6317.7,785.4c-67.7,0-86.4,91.7-86.4,212c0,117.3,29.9,212,92.7,212
			c67.7,0,86.4-91.3,86.4-212C6410.3,880.2,6380.4,785.4,6317.7,785.4z"/>
		<path fill="#ACA8A1" d="M7458,1001.5c0-126.4,79.9-245.6,237.4-245.6c128.5,0,189.5,95.1,190.1,219.8h-286.2
			c-3.2,112.7,54,195.8,163.4,195.8c48.2,0,73.8-11.8,103-34.3l13.5,16.4c-31.5,44.2-97.8,85.8-185.9,85.8
			C7555.5,1239.4,7458,1141.4,7458,1001.5 M7600.5,943.7l143.2-3.2c0.6-63.5-9.5-154.4-61-154.4S7601.6,872.2,7600.5,943.7z"/>
		<path fill="#ACA8A1" d="M8248.5,780.9c-34.1-15.6-85-25-138.2-25c-115.2,0-185.1,67.3-185.1,146.2c0,81.2,52.4,113.1,124.9,138.8
			c78,27.8,98.6,49.6,98.6,85.8c0,37.2-27.3,71.9-76.3,71.9c-58,0-101.4-34.1-135-127.6l-23.6,6.3l4.2,134
			c38.3,15.4,103,28.4,161.7,28.4c121.8,0,196-59.3,196-156.2c0-65-31.5-100.3-111.7-131.2c-86.4-33.6-116.3-54.5-116.3-94.6
			c0-40.2,26.7-67.9,63.5-67.9c55.5,0,93.4,34.3,118.4,115.2l23.6-5.9L8248.5,780.9"/>
		<path fill="#ACA8A1" d="M6953.7,768.8c-51.7-30.9-145.7-16.4-193.3,93.4l2.1-106.6l-204,39.5v18.3l20.2,2.5
			c28.4,4.2,39.5,20.8,42.7,58.7c6.5,73,5.5,203.8,0,266.4c-3.6,38.3-14.3,54.9-42.7,58.7l-20.2,2.5v26.1h284.1v-26.1l-37.2-2.5
			c-28.4-3.8-39.5-20.4-43.1-58.7c-5.3-57.6-6.3-172.4-1.5-247.5c13.5-22.5,80.5-41,142.4,0.6L6953.7,768.8"/>
		<path fill="#ACA8A1" d="M7234.8,761.2c-42.1,0-75.9,11.4-111,28.4c0.4-99.7,1.5-186.3,3.8-219.3l-204.8,39.5v18.3l19.8,2.5
			c28.4,3.8,39.5,20.8,42.7,58.7c6.5,73,5.5,465,0,527.8c55.1,12.4,114.8,21.9,174.5,21.9c162.3,0,260.3-100.3,260.3-259.3
			C7420.5,852.4,7341,761.2,7234.8,761.2 M7163.3,1206.8c-11.8,0-26.7-2.1-35.1-3.6c-3.2-44.2-5.3-225.2-4.8-383.4
			c18.7-6.3,31.5-8,47.9-8c67.3,0,104.7,77.4,105.1,175.6C7276.7,1112,7230,1206.8,7163.3,1206.8z"/>
		<path fill="#ACA8A1" d="M6150.8,585h-538.6v25.7l28.4,3.8c41,5.9,57,31.5,61.8,89.6c9.5,111,8,309.6,0,405.2
			c-4.8,58-20.4,83.3-61.8,89.2l-28.4,3.8v26.1h345.9v-26.1l-36.4-3.8c-41-5.9-57-31.5-61.8-89.2c-3.4-39.5-5.5-106.2-6.3-184.2
			l71.5,2.5c47.5,1.5,67.7,36.8,78.9,89.2h26.7V799h-26.3c-11.4,52.2-31.3,87.5-78.9,89.2l-71.5,1.7c-0.6-102.6,1.5-201.7,6.3-261
			h106.2c82.9,0,127,52.8,155.2,145.7l32-8.6L6150.8,585"/>
		<path fill="#ACA8A1" d="M6325.5,755.9c153.1,0,229,103.7,229,240.6c0,133.5-85.8,242.9-238.7,242.9c-152.9,0-229-103.7-229-240.6
			C6086.8,865.3,6172.6,755.9,6325.5,755.9 M6317.7,785.4c-67.7,0-86.4,91.7-86.4,212c0,117.3,29.9,212,92.7,212
			c67.7,0,86.4-91.3,86.4-212C6410.3,880.2,6380.4,785.4,6317.7,785.4z"/>
		<path fill="#ACA8A1" d="M7458,1001.5c0-126.4,79.9-245.6,237.4-245.6c128.5,0,189.5,95.1,190.1,219.8h-286.2
			c-3.2,112.7,54,195.8,163.4,195.8c48.2,0,73.8-11.8,103-34.3l13.5,16.4c-31.5,44.2-97.8,85.8-185.9,85.8
			C7555.5,1239.4,7458,1141.4,7458,1001.5 M7600.5,943.7l143.2-3.2c0.6-63.5-9.5-154.4-61-154.4S7601.6,872.2,7600.5,943.7z"/>
		<path fill="#ACA8A1" d="M8248.5,780.9c-34.1-15.6-85-25-138.2-25c-115.2,0-185.1,67.3-185.1,146.2c0,81.2,52.4,113.1,124.9,138.8
			c78,27.8,98.6,49.6,98.6,85.8c0,37.2-27.3,71.9-76.3,71.9c-58,0-101.4-34.1-135-127.6l-23.6,6.3l4.2,134
			c38.3,15.4,103,28.4,161.7,28.4c121.8,0,196-59.3,196-156.2c0-65-31.5-100.3-111.7-131.2c-86.4-33.6-116.3-54.5-116.3-94.6
			c0-40.2,26.7-67.9,63.5-67.9c55.5,0,93.4,34.3,118.4,115.2l23.6-5.9L8248.5,780.9"/>
		<path fill="#ACA8A1" d="M6953.7,768.8c-51.7-30.9-145.7-16.4-193.3,93.4l2.1-106.6l-204,39.5v18.3l20.2,2.5
			c28.4,4.2,39.5,20.8,42.7,58.7c6.5,73,5.5,203.8,0,266.4c-3.6,38.3-14.3,54.9-42.7,58.7l-20.2,2.5v26.1h284.1v-26.1l-37.2-2.5
			c-28.4-3.8-39.5-20.4-43.1-58.7c-5.3-57.6-6.3-172.4-1.5-247.5c13.5-22.5,80.5-41,142.4,0.6L6953.7,768.8"/>
	</g>
	<g display="inline">
		<path id="Carrés" fill="#ACA8A1" d="M5614.7,525.9h804v757.9h-804V525.9z M6541.9,1283.8h804V525.9h-804V1283.8z M7469.1,1283.8
			h804V525.9h-804V1283.8z"/>
		<path id="B" fill="#FFFFFF" d="M7036.1,887.8c0,0,70-29.9,69.4-109.4c0,0,10.7-129.8-161.3-145.7h-190.9v544.5h218.9
			c0,0,183,0.6,183-153.7C7154.7,1023.4,7159.3,918.7,7036.1,887.8z M6850.2,717.4h78c81.2,4.2,78,64.6,78,64.6
			c0,74.9-89.6,76.3-89.6,76.3H6850V717.4H6850.2z M7054.8,1015.8c0,82.2-102.4,77.4-102.4,77.4H6850V944.3h102.4
			C7058,943.7,7054.8,1015.8,7054.8,1015.8z"/>
		<path id="B_1_" fill="#FFFFFF" d="M6108.9,887.8c0,0,70-29.9,69.4-109.4c0,0,10.7-129.8-161.3-145.7h-190.9v544.5H6045
			c0,0,183,0.6,183-153.7C6227.9,1023.4,6232.1,918.7,6108.9,887.8z M5923,717.4h78c81.2,4.2,78,64.6,78,64.6
			c0,74.9-89.6,76.3-89.6,76.3h-66.7V717.4H5923z M6128.1,1015.8c0,82.2-102.4,77.4-102.4,77.4H5923V944.3h102.4
			C6131.2,943.7,6128.1,1015.8,6128.1,1015.8z"/>
		<path id="C" fill="#FFFFFF" d="M8109.5,671.6v100.7c0,0-98.2-60.4-206.7-61.4c0,0-202.3-3.8-211.8,193.9
			c0,0-7.4,182.1,209.2,192.6c0,0,90.8,11.1,214.1-67.7v104.5c0,0-165.1,98.2-356.7,22.5c0,0-161.1-59.1-167.2-251.5
			c0,0-6.5-198.5,207.8-264.1c0,0,57.2-21.9,160.2-12.2C7958.9,628.7,8020.3,634.6,8109.5,671.6z"/>
	</g>
	<g display="inline">
		<g>
			<path fill="#ACA8A1" d="M6611.7,794.4v166.1H6551V794.4h-61.4v-53h183.4v52.8h-61.2V794.4z"/>
			<path fill="#ACA8A1" d="M6814.7,894.5h-96.3c1.9,18.1,12.4,26.3,27.8,26.3c14.3,0,26.3-3.2,42.5-11.6l21.7,36
				c-20.4,12-41.2,18.7-66.9,18.7c-49.4,0-76.8-35.1-76.8-85.4c0-56.6,32-85.8,75.1-85.8c45,0,73.2,29.7,73.2,90.6
				C6815.1,888.2,6815.1,891.8,6814.7,894.5z M6740.2,834.4c-12.8,0-20,8.8-21.9,25h46.9C6762.5,843,6756.8,834.4,6740.2,834.4z"/>
			<path fill="#ACA8A1" d="M6919.6,963.9c-48.2,0-77-30.7-77-86c0-50.5,25.7-85.2,78.2-85.2c30.9,0,48.8,14.3,63.3,37.6l-38.9,29.4
				c-7.8-14.3-13.2-21.2-25.4-21.2c-14.5,0-21.7,14.3-21.7,40.4s7.8,39.3,23.1,39.3c10.7,0,18.1-5.9,28.4-21.2l35.8,27.8
				C6966.5,953,6948.6,963.9,6919.6,963.9z"/>
			<path fill="#ACA8A1" d="M7111.6,960.5v-93.2c0-21.2-7.1-26.9-18.7-26.9c-12,0-19.1,5.7-19.1,26.3v93.8h-56.4V754.9l56.4-22.5
				v74.9c10.3-7.8,21.9-14.3,41.2-14.3c36,0,53.2,24.2,53.2,67.3v100.5h-56.6V960.5z"/>
			<path fill="#ACA8A1" d="M7303.2,963.9c-65.2,0-99.9-48.2-99.9-112.9c0-70.4,41.2-112.9,100.1-112.9c53.8,0,75.1,23.1,90.2,64.6
				l-55.1,21.7c-7.8-20.4-15.4-33.2-35.3-33.2c-25.4,0-36.4,25.4-36.4,60.1c0,33.4,10.7,60.1,37,60.1c19.1,0,27.1-10.3,39.1-30.9
				l51.3,27.1C7379.5,936.1,7355.1,963.9,7303.2,963.9z"/>
			<path fill="#ACA8A1" d="M7532.6,858.1c-7.1-7.8-15.4-13.7-26.3-13.7c-13.9,0-22.3,6.5-22.3,26.5v89.6h-56.4V796.3h56.4v11.8
				c9.7-9.5,20.6-15.4,35.1-15.4c12,0,20,2.7,26.5,6.9L7532.6,858.1z"/>
			<path fill="#ACA8A1" d="M7666.6,960.5v-10.9c-10.1,7.8-21.9,14.5-41,14.5c-36,0-53.2-24.2-53.2-67.3V796.3h56.6v93.2
				c0,21.2,7.1,26.9,18.7,26.9s18.7-5.7,18.7-26.3v-93.8h56.6v164.2H7666.6z"/>
			<path fill="#ACA8A1" d="M7858.2,960.5v-93.2c0-21.2-7.1-26.9-18.7-26.9c-12,0-19.1,5.7-19.1,26.3v93.8h-56.4V796.3h56.4v10.9
				c10.3-7.8,21.9-14.3,41.2-14.3c36,0,53.2,24.2,53.2,67.3v100.5h-56.6V960.5z"/>
			<path fill="#ACA8A1" d="M8024.5,963.9c-48.2,0-77-30.7-77-86c0-50.5,25.7-85.2,78.2-85.2c30.9,0,48.8,14.3,63.3,37.6l-38.9,29.4
				c-7.8-14.3-13.2-21.2-25.4-21.2c-14.5,0-21.7,14.3-21.7,40.4s7.8,39.3,23.1,39.3c10.7,0,18.1-5.9,28.4-21.2l35.8,27.8
				C8071.4,953,8053.5,963.9,8024.5,963.9z"/>
			<path fill="#ACA8A1" d="M8216.5,960.5v-93.2c0-21.2-7.2-26.9-18.7-26.9c-12,0-19.1,5.7-19.1,26.3v93.8h-56.4V754.9l56.4-22.5
				v74.9c10.3-7.8,21.9-14.3,41.2-14.3c36,0,53.2,24.2,53.2,67.3v100.5h-56.6V960.5z"/>
		</g>
		<g>
			<polygon fill="#ACA8A1" points="5610.7,648.3 5610.7,772.3 5736.9,772.3 5736.9,1022.6 5861,1022.6 5861,772.3 5987.2,772.3 
				5987.2,648.3 			"/>
			<polygon fill="#ACA8A1" points="6111.2,898.5 6111.2,772.3 5987.2,772.3 5987.2,1022.6 6361.5,1022.6 6361.5,898.5 			"/>
			<rect x="6111.2" y="648.3" fill="#ACA8A1" width="250.3" height="124.1"/>
		</g>
	</g>
</g>
<g display="none">
	<path display="inline" fill="#DCDDDF" d="M-2679.3,3608.8h789.7V4353h-789.7V3608.8z M-2194,3964.2c0,0,68.8-29.2,68.1-107.3
		c0,0,10.5-127.4-158.6-143.2h-187.4v534.8h214.9c0,0,179.6,0.6,179.6-151C-2077.1,4097.5-2073.1,3994.7-2194,3964.2z M-2376.7,3797
		h76.8c79.7,4,76.8,63.3,76.8,63.3c0,73.6-87.9,74.9-87.9,74.9h-65.4V3797H-2376.7z M-2175.3,4090c0,80.8-100.5,75.9-100.5,75.9
		h-100.9v-146.2h100.5C-2172.3,4019.1-2175.3,4090-2175.3,4090z"/>
	<path display="inline" fill="#DCDDDF" d="M-1786.4,3608.8h789.7V4353h-789.7V3608.8z M-1301.3,3964.2c0,0,68.8-29.2,68.1-107.3
		c0,0,10.5-127.4-158.6-143.2h-187.4v534.8h214.9c0,0,179.6,0.6,179.6-151C-1184.4,4097.5-1180.1,3994.7-1301.3,3964.2z
		 M-1483.8,3797h76.8c79.7,4,76.8,63.3,76.8,63.3c0,73.6-87.9,74.9-87.9,74.9h-65.4V3797H-1483.8z M-1282.6,4090
		c0,80.8-100.5,75.9-100.5,75.9H-1484v-146.2h100.5C-1279.4,4019.1-1282.6,4090-1282.6,4090z"/>
	<path display="inline" fill="#DCDDDF" d="M-893.7,4353h789.7v-744.2h-789.7V4353z M-264.9,3751v98.8c0,0-96.5-59.3-203.1-60.4
		c0,0-198.7-3.8-207.8,190.5c0,0-7.2,179,205.5,189.1c0,0,89.4,10.9,210.3-66.5v102.6c0,0-162.1,96.5-350.4,22.1
		c0,0-158.1-57.8-164.2-247.1c0,0-6.5-194.9,204.2-259.3c0,0,56.1-21.4,157.5-12C-412.8,3708.7-352.4,3714.4-264.9,3751z"/>
</g>
<g display="none">
	<path display="inline" fill="#7F8C8D" d="M1521.1,2400.6c0,0-6.5-1.9-7.6,5.5c-0.4,3.2,0.6,5.9,4.2,8.6c0.6,0.4,1.9,0.8,2.7,1.1
		c13.2,1.1,28.8-22.1,38.9-39.3c4.6-8,6.3-10.5,8.4-10.5c1.1,0,4.6-0.4,8.8,6.9c5.5,9.7,32.8,37,67.7,29.4c1.5-3.4-4.8-6.1-8.8-8.2
		c0,0-14.3-11.6,4-17c18.5-4.2,27.3,2.7,43.1-10.3c0.6-4.2-8.2-6.1-8.2-6.1s-10.9-6.7,21.2-16.4c15.8-4.2,15.8-6.9,13-8.8
		c-2.7-2.1-10.3-4.8,0.6-12.2c11.6-7.6,19.1-17.9,18.5-21.2c-2.1-2.7-6.9-2.1-13,1.5c-6.7,3.4-15.8,1.5-20.4-6.1
		c-4.8-7.6-9.7-6.1-15.8-1.5c-6.1,4.8-18.5,11.6-24,0c-3.4-13-2.1-9.7,7.6-27.3c9.7-17.9,11.6-32.2,11.6-34.9s-1.5-4-10.3,0
		c-7.6,2.1-8.2-36.2-8.8-41.6c0,0,0-10.3-6.1-1.5c-4.8,6.1-24,24.6-30.1,26.7c-6.1,2.1-15.1-3.4-13.7-10.9c0-7.6-4.8-4.8-6.9,0
		c-2.1,4.8-16.4,51.3-19.8,54c-3.4,2.7-6.1,9.5-12.2-2.1c-6.1-11.6-16.8-39.1-26.9-25.4c-2.7-2.7-20.2-26.5-34.7-27.1
		c-2.1,2.7,1.3,9.7,4,11.6c2.7,3.4,2.7,13,0,19.8c-2.7,6.9-2.7,15.8,0.6,24c2.1,4.2-0.6,10.9-12.2,12.2c-11.6,1.5-9.7,4.8-4.8,10.9
		c4.8,6.1,22.5,21.2,26.7,26.7c4,5.5-0.6,12.4-8.8,13c-8.2,0.6-15.8-2.1-17.9,2.7c-0.6,4.8,6.1,2.7,8.8,6.9c0,0,15.1,27.3,34.9,26.1
		c19.8-1.5,20.8,1.3,18.5,9.7C1552,2375.8,1536,2399,1521.1,2400.6"/>
	<path display="inline" fill="#7F8C8D" d="M-2470.7,2522.2c-8.8,26.5-20.6,40.2-41.6,40.2h-66.2c-0.6,0-0.6-6.9-0.6-155.2h97.4
		v-29.9h-97.4v-156h49.8c23.6,0.6,31.8,8,38.7,30.5l20,62.7l33.4-6.3v-111h-250v24.2h36.4v341.1h-35.8h-0.6h-47.5v-341.1h36.4v-24.2
		h-144.3v24.2h35.8v155.8h-124.9v-155.8h36.4v-24.2h-142.6h-1.7h-294.4l-4.2,111l33.4,6.3l20-68.6c6.5-22.5,13.5-25.9,36.4-25.9
		h24.6v342.4h-46.3v24.2h164.2v-24.2h-46.3v-342.2h24.6c25.2,0,28.8,2.9,35.8,25.2l20.6,69l33.4-6.3v-86.9h34.7v341.1h-36.4v24.2
		h144.3v-24.2l-36.4-0.6v-155.4h124.9v155.8h-35.8v24.2h155.4h0.6h261.6l8.2-119.7l-32.8-6.3L-2470.7,2522.2z M-2496.6,2222.5
		c11.1,0,18.7,8,24,25.9l14.7,47.1l1.7,5.7l-8.2,1.7l-17-53.4c-3.6-12-9.5-24.2-17.7-26.9H-2496.6z M-3320.3,2301.8l-8.2-1.1
		l3.6-87.5l8.2,0.6L-3320.3,2301.8z M-3205.3,2562.4h-8.8v-342.2h8.8V2562.4z M-3065,2303.1l-17-57c-3.6-12-7.6-24.2-15.8-27.1h6.5
		c8.2,1.1,14.1,13.9,17.7,25.9l17,56.4L-3065,2303.1z M-2984.7,2562.4h-8.8v-341.1h8.8V2562.4z M-2788.3,2562.4h-8.8v-341.1h8.8
		V2562.4z M-2632,2562.4h-8.8v-341.1h8.8V2562.4z M-2435.6,2473.8l-20.6,61.6c-5.3,14.9-15.8,25.9-28.2,25.9h-1.3
		c8.2-2.9,16.4-14.9,20.6-27.1l21-62L-2435.6,2473.8z M1190.3,2221.3h35.8v-24.2h-144.3v24.2h36.4v341.1h-34.7h-1.7h-26.9
		l-111.5-365.3h-57c-14.1,57.4-98.6,324.5-98.6,324.5c-8.8,25.9-21,40.8-46.3,40.8h-35.1L695.9,2326c-2.3-52.4-2.9-65.6-2.9-73.6
		c0-21.9,2.3-26.5,38.1-31.1v-24.2H623.6c-21,56.4-52.8,151.2-78,222.1c-45.8-114.4-86.9-222.1-86.9-222.1H343v24.2
		c40,7.6,43.3,3.4,43.3,41.4v4.6c-3.6,69-11.1,190.3-16.4,262.2c-1.3,17.2-6.5,25.9-42.9,34.5v22.5h118.4v-22.9
		c-41.6-6.9-44-21.2-44-33.9c0-10.9,4.2-110.4,6.9-189.9l2.3-65.6l103.9,262.9l15.1-6.9l87.5-258.2l17.7,290.4h-39.3v24.2h145.5h0.6
		h114.4v-24.2c-41.6-3.4-42.9-14.9-34.7-51.7c2.9-12.6,7.6-31.5,16.4-63.9h103.3c11.1,36.2,24,74.9,35.8,115.7h-34.1v24.2h138.4h1.7
		h143.2v-24.2h-35.8V2221.3z M514.4,2509.6l-102.6-259.9l0.6-21.2l106.8,269.8L514.4,2509.6z M645.2,2562.4l-19.3-313.6l7.6-21.2
		l20.6,334.8H645.2z M847.1,2417.5l41.6-141.5l44,141.5H847.1z M988,2562.4l-94.4-303.7l4.6-16.6l98.6,320.5H988V2562.4z
		 M1136.9,2562.4h-8.8v-341.1h8.8V2562.4z M1457.2,2457.2l-20,64.4c-7.6,24.2-21,40.8-44.6,40.8h-45.8c-0.6,0-0.6-15.6-0.6-341.1
		h36.4v-24.2H1245v24.2h29.7v341.1H1245v24.2h236.8l9.5-123L1457.2,2457.2z M1293.6,2562.4h-8.8v-341.1h8.8V2562.4z M1451.9,2535.4
		c-4.2,13.2-12.4,23.6-20,25.9h-9.9c8.2-2.9,17-14.9,21-27.1l20-63.3l8.2,1.7L1451.9,2535.4z M35.2,2197.1h-135.4h-1.7h-118.8v24.2
		c48.2,0,48.8,27.1,48.8,42.1v190.3c-49.8-78.9-160.2-245.6-165.9-256.6h-97.4v22.5c18.7,1.7,35.8,22.5,46.9,39.1v262.2
		c0,22.7-1.5,38.5-28.8,41.8v-0.4H-446l-111.5-365.3h-57c-14.1,57.4-98.6,324.5-98.6,324.5c-8.8,25.9-21,40.8-46.3,40.8v24.2h115
		v-24.2c-41.6-3.4-42.9-14.9-34.7-51.7c2.9-12.6,7.6-31.5,16.4-63.9h103.3c11.1,36.2,24,74.9,35.8,115.7h-34.1v24.2h132.1h8.2h112.1
		v-24.2c-54.5-0.6-55.7-22.9-55.7-41.4v-220.2l184.2,285.8h31.1c0-20.2,1.3-44.8,1.3-69.6v-253.6c0-26.5,7.6-42.1,44-42.1h32.8
		v341.1h-38.7v24.2H34.9c110.4,0,174.3-92.5,174.3-199.6C209.3,2275.9,147.2,2197.1,35.2,2197.1 M-653.8,2417.5l41.6-141.5l44,141.5
		H-653.8z M-512.9,2562.4l-94.4-303.7l4.6-16.6l98.6,320.5h-8.8V2562.4z M-174.3,2572.9L-380.2,2253c-5.3-8-16.4-23.6-22.3-29.4
		l0.6-1.1l11.1,1.7c0,0,15.1,20.2,22.9,32.2l193.7,300.3v16.2H-174.3z M-48.8,2562.4h-8.8v-341.1h8.8V2562.4z M26.3,2562.4h-8.2
		c-9.5,0-13.5-6.3-13.5-17.2v-323.9h7.2c31.1,0,42.9,5.3,55.1,12c45.2,26.5,66.9,95.5,66.9,165.7c0,80.5-21.7,128.9-54,149.5
		C68,2556.1,56.2,2562.4,26.3,2562.4 M122.4,2530.8c-10.5,14.3-28.2,29.2-46.9,31.1h-2.3c63.3-25.9,70.4-111.7,70.4-164.5
		c0-48.4-8.8-90.2-26.9-122.6c-12.8-23.6-30.5-43.1-54-53h1.7c11.1,1.1,24.6,9.3,32.8,15.6c38.7,31.5,55.7,90.8,55.7,158.1
		C152.9,2445,146.6,2497.4,122.4,2530.8 M-1222.8,2385.9c51.1-17.2,69.2-54.7,69.2-88.5c0-62.7-41-100.1-113.1-100.1h-157.9v24h38.7
		v341.1h-38.7v24.2h166.1c74.4,0,123.2-41.4,123.2-101.8C-1135.4,2433.7-1167.1,2393.3-1222.8,2385.9 M-1246.4,2222.5
		c8.2,1.7,15.4,6.9,19.3,11.6c13.5,16.2,20.6,42.5,20.6,71.3c0,20.6-4,40.2-12.8,54c-4.2,6.3-15.1,14.3-23.6,15.6h-1.3
		c18.7-10.9,28.2-40.2,28.2-69.6c0-35.8-10.5-70.2-31.8-82.9H-1246.4L-1246.4,2222.5z M-1314.3,2221.3h36.4
		c34.7,0,52.2,37.4,52.2,83.9c0,38.5-15.8,70.2-44,70.2h-44.6V2221.3z M-1367.1,2562.4h-8.8v-341.1h8.8V2562.4z M-1272.7,2562.4
		h-35.8c-5.9,0-5.9-6.3-5.9-13.9v-147.8h49.2c37.6,2.3,54,41.4,54,89.2C-1211.1,2540.1-1233.3,2562.4-1272.7,2562.4 M-1207.1,2546.8
		c-4.6,6.3-15.4,12.6-24,14.3h-1.7c20.6-10.9,31.8-36.8,31.8-71.3c0-38.1-13.5-76.5-37-88.5h1.3c9.9,1.7,21.7,9.3,28.2,18.9
		c11.1,17.2,17,42.5,17,69.6C-1191.7,2515.3-1197,2534.2-1207.1,2546.8 M-2122.9,2454.9h42.9v98.8c-14.1,4-27.5,4.6-44,4.6
		c-52.2,0-96.3-47.7-96.3-171.4c0-92.5,34.7-162.8,85.6-162.8c40,0,54,48.8,70.4,109.8l38.7-6.9v-102.4
		c-31.8-22.5-60.4-30.5-100.9-30.5c-104.5,0-170.1,98.8-170.1,203.6c0,131.6,71.1,192.6,167.2,192.6c25.9,0,62.2-8,86.9-17.2
		l32.2-2.9v-140.3h-112.7v25H-2122.9z M-2104.2,2224.8c9.9,0,22.9,9.7,31.1,25.2c6.5,13.2,13.5,28.8,24.6,70.7l-8.8,1.7
		c-11.1-39.7-17.7-57.4-25.9-73.6c-6.5-13.2-18.7-22.5-22.3-24.2h1.3V2224.8z M-2209.1,2561.3c-57-39.1-77.4-99.5-77.4-163.4
		c1.3-67.9,27.5-135.2,84.5-172.7c7.6-5.3,7.6-1.7,6.5,0l-6.9,5.7c-46.9,39.1-74.4,104.1-74.4,166.8c0,62.7,20.6,119,67.5,157.7
		l7.2,5.7C-2200.3,2565.9-2204.9,2563.6-2209.1,2561.3 M-2070.1,2454.9h8.8v94.4l-8.8,2.3V2454.9z M-1590.6,2193.1
		c-106.2,0-161.3,94.8-161.3,203.6c0,24,2.5,46.1,6.9,66l-30.5-5.7l-20,64.4c-7.6,24.2-21,40.8-44.6,40.8h-45.8
		c-0.6,0-0.6-15.6-0.6-341.1h36.4v-24.2h-142.6v24.4h34.7v341.1h-39.3v24.2h246.5l8.6-112.7c20.4,73.6,72.8,116.7,151.6,116.7
		c106.8,0,161.9-94.4,161.9-203.1C-1428.7,2268-1486.8,2193.1-1590.6,2193.1 M-1939.3,2562.4h-8.8v-341.1h8.8V2562.4z
		 M-1780.7,2535.4c-4.2,13.2-12.4,23.6-20,25.9h-9.9c8.2-2.9,17-14.9,21-27.1l20-63.3l8.2,1.7L-1780.7,2535.4z M-1664.7,2563.6
		c-57-38.5-77.4-103-77.4-165.7c0-68.3,22.3-134,77.4-174.3c4.2-2.3,8.8-4.6,6.5,0l-6.5,5.7c-45.6,41-68.1,106-68.1,168.7
		c0,62.7,22.3,121.3,68.1,160.5l6.5,5.3C-1655.8,2568.3-1660.5,2565.9-1664.7,2563.6 M-1675.8,2392.2c0-112.7,24.6-168.4,85.2-168.4
		c53.4,0,85.6,55.7,85.6,168.4c0,112.7-24.6,168-85.6,168C-1643.4,2560.1-1675.8,2505-1675.8,2392.2 M-1545,2561.3
		c-8.2,3.4-8.2,1.7-2.3-2.3c42.3-28.8,52.2-94.8,52.2-161.7c0-66.7-11.1-138.6-52.2-169.1c-5.9-4-5.9-5.7,2.3-2.3
		c54,25.9,59.3,123.7,59.3,169.7C-1485.7,2450.9-1490.3,2535.4-1545,2561.3 M-913.1,2522.2c-8.8,26.5-20.6,40.2-41.6,40.2h-66.2
		c-0.6,0-0.6-6.9-0.6-155.2h97.4v-29.9h-97.4v-156h49.8c23.6,0.6,31.8,8,38.7,30.5l20,62.7l33.4-6.3v-111h-250v24.2h36.4v341.1
		h-36.4v24.2h262.2l8.2-119.7l-32.8-6.3L-913.1,2522.2z M-938.9,2222.5c11.1,0,18.7,8,24,25.9l14.7,47.1l1.7,5.7l-8.2,1.7l-17-53.4
		c-3.6-12-9.5-24.2-17.7-26.9H-938.9z M-1074.4,2562.4h-8.8v-341.1h8.8V2562.4z M-877.7,2473.8l-20.6,61.6
		c-5.3,14.9-15.8,25.9-28.2,25.9h-1.3c8.2-2.9,16.4-14.9,20.6-27.1l21-62L-877.7,2473.8z"/>
</g>
<g display="none">
	<g display="inline">
		<path fill="#DCDDDF" d="M-2224.7-219c0-0.4-138.8,0-138.8,0c-205.2,0-371.6,166.3-371.6,371.6c0,205.5,166.3,371.8,371.8,371.8
			l260.8-0.2c65.6,0,118.6-52.6,118.6-118.2l0.2-226.7l180.2,283.9c24.4,36.8,66.2,61.2,113.8,61.2c75.3,0,136.3-61,136.3-136.3
			V178.7l180.2,284.3c24.4,36.8,66.2,61.2,113.8,61.2c75.3,0,136.3-61,136.3-136.3v-608h-92.7v608c0,24.2-19.6,43.3-43.3,43.3
			c-15.1,0-28.4-7.6-36-19.1l-321.3-504.7c-2.9-4.4-8-7.2-13.7-7.2c-9,0-16.4,7.4-16.4,16.4v471.7c0,24.2-19.6,43.3-43.3,43.3
			c-15.1,0-28.4-7.6-36-19.1l-320.7-505.1c-2.9-4.4-8-7.2-13.7-7.2c-9,0-16.4,7.4-16.4,16.4v489.1c0,14.3-11.6,25.9-25.9,25.9
			l-260.8-0.2c-153.9,0-278.9-124.9-278.9-278.9s124.9-278.9,278.9-278.9h138.8v-92.3h-0.2V-219z"/>
		<path fill="#DCDDDF" d="M-2209.5,312.4c7.4,0,13.2-5.9,13.2-13.2V-83.4c0-75.3,61-136.3,136.3-136.3c47.7,0,89.8,24.6,114,61.6
			l179.6,281.6l0.2-207.1c0-75.3,61-136.3,136.3-136.3c47.7,0,89.8,24.6,114,61.6l179.6,281.6v-343.2h93.4l-0.2,608
			c0,9-7.4,16.4-16.4,16.4c-5.5,0-10.1-2.5-13.2-6.5L-1594-107.6c-7.8-11.6-21-19.1-36-19.1c-24.2,0-43.3,19.6-43.3,43.3v471.7
			c0,9-7.4,16.4-16.4,16.4c-5.5,0-10.1-2.5-13.2-6.5l-321.1-505.8c-7.8-11.6-21-19.1-36-19.1c-24.2,0-43.3,19.6-43.3,43.3l0.2,475.5
			c0,7.4-5.9,13.2-13.2,13.2h-246.9c-139.2-0.2-251.9-113.8-251.9-253s112.7-252.8,251.9-252.8c0,0,138.8-0.6,138.8,0s0,93.6,0,93.6
			h-138.8c-87.9,0-159,71.3-159,159s71.3,159.8,159,159.8h153.7V312.4z"/>
	</g>
	<g display="inline">
		<path fill="#DCDDDF" d="M-1044.7-985.3c-46.7,0-84.5,12.8-123.4,31.8c0.4-110.8,1.5-207.4,4.2-243.9l-227.8,44v20.4l22.1,2.7
			c31.8,4.2,44,23.1,47.5,65.2c7.4,81,6.1,517.3,0,587.1c61.4,13.9,127.9,24.4,194.1,24.4c180.6,0,289.6-111.5,289.6-288.3
			C-838.2-883.8-926.5-985.3-1044.7-985.3 M-1124.2-489.7c-13,0-29.7-2.3-38.9-3.8c-3.6-49-5.9-250.5-5.5-426.5
			c20.8-6.9,35.1-8.8,53.2-8.8c74.9,0,116.5,86,116.9,195.4C-998-595-1050-489.7-1124.2-489.7z"/>
		<path fill="#DCDDDF" d="M-2250.6-1181.5h-599.1v28.6l31.8,4.2c45.6,6.5,63.3,35.1,68.8,99.7c10.5,123.4,8.8,344.3,0,450.9
			c-5.5,64.6-22.7,92.7-68.8,99.3l-31.8,4.2v29h384.8v-29l-40.6-4.2c-45.6-6.5-63.3-35.1-68.8-99.3c-3.8-44-6.1-118.2-6.9-205
			l79.5,2.7c52.8,1.5,75.3,41,87.7,99.3h29.7v-242.1h-29.4c-12.8,57.8-34.7,97.4-87.7,99.3l-79.5,1.9
			c-0.8-114.2,1.5-224.2,6.9-290.2h118.2c92.3,0,141.3,58.7,172.7,162.1l35.5-9.7L-2250.6-1181.5"/>
		<path fill="#DCDDDF" d="M-2056-991.2c170.1,0,254.7,115.5,254.7,267.5c0,148.7-95.3,270.2-265.6,270.2
			c-170.3,0-254.7-115.5-254.7-267.5C-2321.6-869.7-2226.4-991.2-2056-991.2 M-2064.9-958.4c-75.3,0-96.1,102-96.1,236
			c0,130.4,33.2,236,103,236c75.3,0,96.1-101.6,96.1-236C-1961.8-853-1995-958.4-2064.9-958.4z"/>
		<path fill="#DCDDDF" d="M-796.4-717.8c0-140.5,88.7-273.4,264.1-273.4c142.8,0,210.7,105.8,211.6,244.4h-318.6
			c-3.6,125.5,60.1,217.7,181.9,217.7c53.6,0,82.2-13,114.6-38.3l15.1,18.1c-35.1,49-108.9,95.3-206.9,95.3
			C-688.1-453.5-796.4-562.2-796.4-717.8 M-637.8-782.4l159.4-3.6c0.8-70.7-10.5-171.8-67.9-171.8
			C-603.9-957.6-636.7-861.9-637.8-782.4z"/>
		<path fill="#DCDDDF" d="M82.9-963.5C45-980.9-11.7-991.2-70.8-991.2c-128.1,0-205.7,74.9-205.7,162.6c0,90.4,58.3,125.8,139,154.4
			c86.9,30.9,109.6,55.1,109.6,95.3c0,41.2-30.5,79.9-85,79.9c-64.6,0-112.7-37.9-150.2-141.9l-26.3,6.9l4.6,149.1
			c42.5,17,114.6,31.8,179.8,31.8c135.4,0,218.1-66,218.1-173.7c0-72.1-35.1-111.5-124.3-145.9c-96.1-37.4-129.3-60.6-129.3-105.4
			s29.7-75.7,70.7-75.7C-8-954,34.1-915.7,61.9-825.9l26.3-6.5L82.9-963.5"/>
		<path fill="#DCDDDF" d="M-1357.4-976.9c-57.6-34.3-162.1-18.1-214.9,103.9l2.3-118.6l-226.9,44v20.4l22.3,2.7
			c31.8,4.6,44,23.1,47.5,65.2c7.4,81,6.1,226.5,0,296.5c-3.8,42.5-15.8,61-47.5,65.2l-22.3,2.7v29h316.1v-29l-41.2-2.7
			c-31.8-4.2-44-22.7-47.9-65.2c-5.9-64.1-6.9-191.8-1.5-275.3c15.1-25,89.6-45.6,158.4,0.8L-1357.4-976.9"/>
		<path fill="#DCDDDF" d="M-1044.7-985.3c-46.7,0-84.5,12.8-123.4,31.8c0.4-110.8,1.5-207.4,4.2-243.9l-227.8,44v20.4l22.1,2.7
			c31.8,4.2,44,23.1,47.5,65.2c7.4,81,6.1,517.3,0,587.1c61.4,13.9,127.9,24.4,194.1,24.4c180.6,0,289.6-111.5,289.6-288.3
			C-838.2-883.8-926.5-985.3-1044.7-985.3 M-1124.2-489.7c-13,0-29.7-2.3-38.9-3.8c-3.6-49-5.9-250.5-5.5-426.5
			c20.8-6.9,35.1-8.8,53.2-8.8c74.9,0,116.5,86,116.9,195.4C-998-595-1050-489.7-1124.2-489.7z"/>
		<path fill="#DCDDDF" d="M-2250.6-1181.5h-599.1v28.6l31.8,4.2c45.6,6.5,63.3,35.1,68.8,99.7c10.5,123.4,8.8,344.3,0,450.9
			c-5.5,64.6-22.7,92.7-68.8,99.3l-31.8,4.2v29h384.8v-29l-40.6-4.2c-45.6-6.5-63.3-35.1-68.8-99.3c-3.8-44-6.1-118.2-6.9-205
			l79.5,2.7c52.8,1.5,75.3,41,87.7,99.3h29.7v-242.1h-29.4c-12.8,57.8-34.7,97.4-87.7,99.3l-79.5,1.9
			c-0.8-114.2,1.5-224.2,6.9-290.2h118.2c92.3,0,141.3,58.7,172.7,162.1l35.5-9.7L-2250.6-1181.5"/>
		<path fill="#DCDDDF" d="M-2056-991.2c170.1,0,254.7,115.5,254.7,267.5c0,148.7-95.3,270.2-265.6,270.2
			c-170.3,0-254.7-115.5-254.7-267.5C-2321.6-869.7-2226.4-991.2-2056-991.2 M-2064.9-958.4c-75.3,0-96.1,102-96.1,236
			c0,130.4,33.2,236,103,236c75.3,0,96.1-101.6,96.1-236C-1961.8-853-1995-958.4-2064.9-958.4z"/>
		<path fill="#DCDDDF" d="M-796.4-717.8c0-140.5,88.7-273.4,264.1-273.4c142.8,0,210.7,105.8,211.6,244.4h-318.6
			c-3.6,125.5,60.1,217.7,181.9,217.7c53.6,0,82.2-13,114.6-38.3l15.1,18.1c-35.1,49-108.9,95.3-206.9,95.3
			C-688.1-453.5-796.4-562.2-796.4-717.8 M-637.8-782.4l159.4-3.6c0.8-70.7-10.5-171.8-67.9-171.8
			C-603.9-957.6-636.7-861.9-637.8-782.4z"/>
		<path fill="#DCDDDF" d="M82.9-963.5C45-980.9-11.7-991.2-70.8-991.2c-128.1,0-205.7,74.9-205.7,162.6c0,90.4,58.3,125.8,139,154.4
			c86.9,30.9,109.6,55.1,109.6,95.3c0,41.2-30.5,79.9-85,79.9c-64.6,0-112.7-37.9-150.2-141.9l-26.3,6.9l4.6,149.1
			c42.5,17,114.6,31.8,179.8,31.8c135.4,0,218.1-66,218.1-173.7c0-72.1-35.1-111.5-124.3-145.9c-96.1-37.4-129.3-60.6-129.3-105.4
			s29.7-75.7,70.7-75.7C-8-954,34.1-915.7,61.9-825.9l26.3-6.5L82.9-963.5"/>
		<path fill="#DCDDDF" d="M-1357.4-976.9c-57.6-34.3-162.1-18.1-214.9,103.9l2.3-118.6l-226.9,44v20.4l22.3,2.7
			c31.8,4.6,44,23.1,47.5,65.2c7.4,81,6.1,226.5,0,296.5c-3.8,42.5-15.8,61-47.5,65.2l-22.3,2.7v29h316.1v-29l-41.2-2.7
			c-31.8-4.2-44-22.7-47.9-65.2c-5.9-64.1-6.9-191.8-1.5-275.3c15.1-25,89.6-45.6,158.4,0.8L-1357.4-976.9"/>
	</g>
	<g display="inline">
		<g>
			<path fill="#DCDDDF" d="M-880.9-1990.1v330.4h-120.7v-330.4h-122v-105.1h364.7v105.1H-880.9z"/>
			<path fill="#DCDDDF" d="M-477.1-1791.2h-191.6c3.8,36.2,24.8,52.2,55.3,52.2c28.6,0,52.4-6.3,84.5-22.9l42.9,71.5
				c-40.4,23.6-82.2,37.2-133.1,37.2c-98.4,0-152.5-69.6-152.5-169.9c0-112.5,63.5-170.5,149.3-170.5c89.6,0,145.5,59.1,145.5,180.4
				C-476.5-1803.6-476.5-1796.6-477.1-1791.2z M-625.2-1910.6c-25.4,0-39.7,17.5-43.5,49.8h93.4
				C-581-1893.8-592.2-1910.6-625.2-1910.6z"/>
			<path fill="#DCDDDF" d="M-268.7-1653c-95.9,0-153.1-61-153.1-171.2c0-100.1,51.1-169.3,155.6-169.3c61.6,0,97.2,28.6,125.8,74.7
				l-77.2,58.5c-15.6-28.6-26.1-42.3-50.5-42.3c-28.6,0-42.9,28.6-42.9,80.3c0,51.7,15.6,78.4,46.1,78.4c21.2,0,36.2-11.8,56.6-42.3
				l70.9,55.3C-175.4-1674.7-210.9-1653-268.7-1653z"/>
			<path fill="#DCDDDF" d="M113.2-1659.7v-185.5c0-42.3-14.3-53.4-37.4-53.4c-23.6,0-38.1,11.1-38.1,52.2v186.7H-74.2v-408.8
				l111.9-44.8v148.7c20.6-15.6,43.5-28.6,82.2-28.6c71.5,0,105.8,47.9,105.8,133.7v199.8H113.2z"/>
			<path fill="#DCDDDF" d="M493.8-1653c-129.3,0-198.5-95.9-198.5-224.6c0-140.1,82.2-224.6,199.1-224.6
				c107,0,149.3,46.1,179.2,128.1L564-1931.2c-15.6-40.4-30.5-66-70.2-66c-50.5,0-72.1,50.5-72.1,119.4
				c0,66.7,21.2,119.4,73.4,119.4c37.9,0,54-20.6,77.8-61.6l102,54C645.6-1708.3,597.1-1653,493.8-1653z"/>
			<path fill="#DCDDDF" d="M950.4-1863.3c-14.3-15.6-30.5-27.3-52.2-27.3c-27.3,0-44.2,13-44.2,52.8v177.9H742.2v-326.6H854v23.6
				c19.3-18.7,41-30.5,69.6-30.5c23.6,0,39.7,5.7,52.8,13.7L950.4-1863.3z"/>
			<path fill="#DCDDDF" d="M1216.6-1659.7v-21.9c-20,15.6-43.5,28.6-81.4,28.6c-71.5,0-105.8-47.9-105.8-133.7v-199.8h112.7v185.5
				c0,42.3,14.3,53.4,37.4,53.4c22.9,0,37.2-11.1,37.2-52.4v-186.5h112.7v326.6h-112.9V-1659.7z"/>
			<path fill="#DCDDDF" d="M1597.2-1659.7v-185.5c0-42.3-14.3-53.4-37.4-53.4c-23.6,0-38.1,11.1-38.1,52.2v186.7h-111.9v-326.6
				h111.9v21.9c20.6-15.6,43.5-28.6,82.2-28.6c71.5,0,105.8,47.9,105.8,133.7v199.8h-112.5V-1659.7z"/>
			<path fill="#DCDDDF" d="M1928.2-1653c-95.9,0-153.1-61-153.1-171.2c0-100.1,51.1-169.3,155.6-169.3c61.6,0,97.2,28.6,125.8,74.7
				l-77.2,58.5c-15.6-28.6-26.1-42.3-50.5-42.3c-28.6,0-42.9,28.6-42.9,80.3c0,51.7,15.6,78.4,46.1,78.4c21.2,0,36.2-11.8,56.6-42.3
				l70.9,55.3C2021.4-1674.7,1986.1-1653,1928.2-1653z"/>
			<path fill="#DCDDDF" d="M2310.1-1659.7v-185.5c0-42.3-14.3-53.4-37.4-53.4c-23.8,0-38.1,11.1-38.1,52.2v186.7h-111.9v-408.8
				l111.9-44.8v148.7c20.6-15.6,43.5-28.6,82.2-28.6c71.5,0,105.8,47.9,105.8,133.7v199.8H2310.1z"/>
		</g>
		<g>
			<polygon fill="#DCDDDF" points="-2855.8,-2266.4 -2855.8,-2020.4 -2603.4,-2020.4 -2603.4,-1524.1 -2359.5,-1524.1 
				-2359.5,-2020.4 -2113.4,-2020.4 -2113.4,-2266.4 			"/>
			<polygon fill="#DCDDDF" points="-1848.5,-1776.5 -1848.5,-2020.4 -2113.4,-2020.4 -2113.4,-1524.1 -1371.1,-1524.1 
				-1371.1,-1776.5 			"/>
			<rect x="-1848.5" y="-2266.4" fill="#DCDDDF" width="477.4" height="246"/>
		</g>
	</g>
</g>
<g>
	<g>
		<path fill="#7F8C8D" d="M485.1,390c52.2,0,94.4-42.3,94.4-94.2c0-52.2-42.3-94.4-94.4-94.4c-52.2,0-94.4,42.3-94.4,94.4
			C390.9,347.7,432.9,390,485.1,390z"/>
		<path fill="#7F8C8D" d="M485.1,295.6"/>
		<path fill="#7F8C8D" d="M376.1,390c-52.2,0-94.4-42.3-94.4-94.2c0-52.2,42.3-94.4,94.4-94.4V390z"/>
		<path fill="#7F8C8D" d="M594,494.1v-89.6h89.6C683.6,453.9,643.4,494.1,594,494.1z"/>
		<path fill="#7F8C8D" d="M376.1,97.3v89.6h-89.6C286.6,137.4,326.7,97.3,376.1,97.3"/>
		<path fill="#7F8C8D" d="M376.1,494.1v-89.6h-89.6C286.6,453.9,326.7,494.1,376.1,494.1z"/>
		<path fill="#7F8C8D" d="M702.9,376.7V214.6c27.5,16.4,46.1,46.5,46.1,81C749,330.1,730.5,360.1,702.9,376.7z"/>
		<path fill="#7F8C8D" d="M404.1,77.7h162.1c-16.4-27.5-46.5-46.1-81-46.1C450.6,31.6,420.5,50.2,404.1,77.7z"/>
		<path fill="#7F8C8D" d="M565,513.4H402.9c16.4,27.5,46.5,46.1,81,46.1C518.3,559.7,548.6,541.2,565,513.4z"/>
		<path fill="#7F8C8D" d="M579.5,404.5c0,52.2-42.3,94.2-94.2,94.2c-52.2,0-94.4-42.3-94.4-94.2H579.5z"/>
		<path fill="#7F8C8D" d="M594,390c52.2,0,94.4-42.3,94.4-94.2c0-52.2-42.3-94.4-94.4-94.4V390z"/>
		<path fill="#7F8C8D" d="M579.5,186.8c0-52.2-42.3-94.2-94.2-94.2c-52.2,0-94.4,42.3-94.4,94.2H579.5z"/>
		<path fill="#7F8C8D" d="M267.2,376.7V214.6c-27.5,16.4-46.1,46.5-46.1,81C221.2,330.1,239.7,360.1,267.2,376.7z"/>
		<path fill="#7F8C8D" d="M683.6,186.8H594V97.3C643.4,97.3,683.6,137.4,683.6,186.8"/>
	</g>
	<g>
		<path fill="#7F8C8D" d="M457.5,648.7h30.1c11.1,0,27.8,3.2,27.8,22.1c0,10.3-6.9,17.5-17,19.1v0.2c11.8,1.1,19.8,9,19.8,19.6
			c0,21.7-19.6,24.8-30.3,24.8h-30.1v-85.8 M474.8,683.6h6.9c7.4,0,16.2-1.7,16.2-10.5c0-9.9-8.8-10.7-16.6-10.7h-6.7v21.2
			 M474.8,721.2h8.2c8,0,17.7-1.9,17.7-12c0-11.1-9-13-17.7-13h-8.2V721.2z"/>
		<path fill="#7F8C8D" d="M443.7,733.6c-6.3,1.5-13,2.7-19.6,2.7c-27.8,0-47.3-13.9-47.3-43.1c0-29.4,18.1-46.1,47.3-46.1
			c5.7,0,13.2,1.1,19.6,3.6l-1.3,14.5c-6.5-3.8-12.4-4.6-18.5-4.6c-17.7,0-28.8,13.5-28.8,31.1c0,17.5,10.9,30.7,29.2,30.7
			c6.7,0,14.7-1.5,18.9-3.6L443.7,733.6z"/>
		<path fill="#7F8C8D" d="M593.4,733.6c-6.3,1.5-13,2.7-19.6,2.7c-28,0-47.3-13.9-47.3-43.1c0-29.4,18.1-46.1,47.3-46.1
			c5.7,0,13.2,1.1,19.6,3.6l-1.3,14.5c-6.5-3.8-12.4-4.6-18.5-4.6c-17.7,0-28.8,13.5-28.8,31.1c0,17.5,10.9,30.7,29.2,30.7
			c6.7,0,14.7-1.5,18.9-3.6L593.4,733.6z"/>
	</g>
</g>
<g display="none">
	<path display="inline" fill="#7F8C8D" d="M2940.2-2096.1c-200.2,0-362.5-162.6-362.5-363.4c0-200.6,162.3-363.2,362.5-363.2
		s362.5,162.8,362.5,363.2C3302.7-2258.7,3140.6-2096.1,2940.2-2096.1L2940.2-2096.1z M2940.2-2297.1
		c-89.4,0-161.9-72.8-161.9-162.3s72.6-162.1,161.9-162.1c63.3,0,118,36.2,144.7,89.2h79.5c-30.7-94.6-119.4-163-224-163
		c-130,0-235.5,105.6-235.5,236c0,130.4,105.4,236.2,235.5,236.2c107.3,0,197.7-71.7,226.1-169.9h-78.2
		C3062.8-2336.7,3006.2-2297.1,2940.2-2297.1L2940.2-2297.1z"/>
	<path display="inline" fill="#7F8C8D" d="M3164.1-2532.5h-79.3H3164.1z"/>
	<path display="inline" fill="#7F8C8D" d="M3088-2393.5h78.2H3088z"/>
	<path display="inline" fill="#7F8C8D" d="M4033.1-2115.2h-697.3v-684.9h697.3V-2115.2L4033.1-2115.2z M3918.7-2678.4h-465v69.4
		H3648v358.1h69.4V-2609h201.3L3918.7-2678.4L3918.7-2678.4z"/>
	<path display="inline" fill="#7F8C8D" d="M4460-2090.8l-426.7-709.3h843.1L4460-2090.8L4460-2090.8z M4630.5-2674.6l-167.2,284.7
		l-171.2-284.3l-86-0.4l257.2,427.3l251.5-425L4630.5-2674.6L4630.5-2674.6z"/>
</g>
</svg>
