<?xml version="1.0" encoding="utf-8"?>
<!-- Generator: Adobe Illustrator 16.0.0, SVG Export Plug-In . SVG Version: 6.00 Build 0)  -->
<!DOCTYPE svg PUBLIC "-//W3C//DTD SVG 1.1//EN" "http://www.w3.org/Graphics/SVG/1.1/DTD/svg11.dtd">
<svg version="1.1" id="Layer_1" xmlns="http://www.w3.org/2000/svg" xmlns:xlink="http://www.w3.org/1999/xlink" x="0px" y="0px"
	 width="200px" height="200px" viewBox="0 0 200 200" enable-background="new 0 0 200 200" xml:space="preserve">
<g>
	<path fill="#FFBD44" d="M100,62.982c17.364,0,31.491-14.126,31.491-31.491C131.491,14.127,117.364,0,100,0
		S68.509,14.127,68.509,31.491C68.509,48.856,82.636,62.982,100,62.982z M100,6.383c13.845,0,25.107,11.264,25.107,25.108
		c0,13.844-11.263,25.109-25.107,25.109S74.892,45.336,74.892,31.491C74.892,17.646,86.155,6.383,100,6.383z"/>
	<path fill="#FFBD44" d="M100,75.749c25.452,0,46.35,19.868,47.997,44.91H74.238c-1.763,0-3.191,1.43-3.191,3.19
		c0,1.765,1.429,3.191,3.191,3.191h77.055c1.764,0,3.191-1.428,3.191-3.191c0-30.042-24.441-54.483-54.484-54.483
		S45.515,93.807,45.515,123.85c0,1.765,1.429,3.191,3.191,3.191h12.766c1.763,0,3.192-1.428,3.192-3.191
		c0-1.762-1.429-3.19-3.192-3.19h-9.47C53.65,95.617,74.548,75.749,100,75.749L100,75.749z"/>
	<path fill="#FFBD44" d="M59.748,160.729L42.24,157.79l-8.205-15.742c-0.55-1.056-1.64-1.717-2.83-1.717s-2.28,0.661-2.83,1.717
		L20.17,157.79l-17.507,2.938c-1.173,0.196-2.14,1.028-2.507,2.16c-0.367,1.133-0.075,2.375,0.758,3.223l12.437,12.668
		l-2.616,17.559c-0.175,1.178,0.318,2.354,1.281,3.053c0.962,0.699,2.234,0.805,3.298,0.275l15.891-7.914l15.891,7.914
		c0.45,0.223,0.938,0.334,1.422,0.334c0.662,0,1.321-0.206,1.876-0.609c0.962-0.699,1.456-1.875,1.281-3.053l-2.616-17.559
		l12.437-12.668c0.833-0.85,1.125-2.092,0.758-3.223C61.888,161.758,60.921,160.926,59.748,160.729z M43.392,175.441
		c-0.701,0.715-1.027,1.717-0.879,2.707l1.948,13.072l-11.832-5.893c-0.896-0.446-1.949-0.446-2.845,0l-11.833,5.893l1.948-13.072
		c0.147-0.99-0.178-1.992-0.879-2.707l-9.26-9.433l13.036-2.188c0.987-0.165,1.84-0.784,2.302-1.674l6.109-11.721l6.109,11.721
		c0.462,0.89,1.315,1.509,2.302,1.674l13.036,2.188L43.392,175.441z"/>
	<path fill="#FFBD44" d="M128.543,160.729l-17.508-2.938l-8.205-15.742c-0.55-1.056-1.641-1.717-2.83-1.717
		c-1.19,0-2.28,0.661-2.83,1.717l-8.205,15.742l-17.508,2.938c-1.173,0.197-2.14,1.029-2.507,2.162
		c-0.367,1.131-0.075,2.373,0.758,3.221l12.437,12.669l-2.615,17.559c-0.175,1.179,0.318,2.354,1.281,3.054
		c0.962,0.698,2.234,0.805,3.298,0.274L100,191.752l15.891,7.914c0.451,0.223,0.938,0.334,1.422,0.334
		c0.664,0,1.322-0.206,1.877-0.609c0.963-0.699,1.457-1.875,1.281-3.053l-2.615-17.559l12.438-12.668
		c0.833-0.85,1.126-2.092,0.758-3.223C130.682,161.758,129.716,160.926,128.543,160.729z M112.188,175.441
		c-0.701,0.715-1.026,1.717-0.881,2.707l1.947,13.072l-11.832-5.893c-0.447-0.223-0.935-0.334-1.422-0.334s-0.975,0.111-1.422,0.334
		l-11.832,5.893l1.947-13.072c0.147-0.99-0.178-1.992-0.879-2.707l-9.26-9.433l13.036-2.188c0.987-0.165,1.84-0.784,2.302-1.674
		L100,150.428l6.109,11.723c0.461,0.888,1.313,1.507,2.302,1.673l13.036,2.188L112.188,175.441L112.188,175.441z"/>
	<path fill="#FFBD44" d="M199.844,162.891c-0.367-1.133-1.334-1.965-2.508-2.162l-17.507-2.938l-8.205-15.742
		c-0.55-1.056-1.64-1.717-2.83-1.717c-1.188,0-2.28,0.661-2.83,1.717l-8.204,15.742l-17.508,2.938
		c-1.174,0.197-2.141,1.029-2.508,2.162c-0.367,1.131-0.075,2.373,0.758,3.221l12.438,12.669l-2.615,17.559
		c-0.176,1.179,0.318,2.354,1.281,3.054c0.961,0.698,2.232,0.805,3.297,0.274l15.892-7.914l15.892,7.914
		c0.45,0.224,0.938,0.334,1.424,0.334c0.662,0,1.32-0.206,1.875-0.608c0.963-0.699,1.457-1.877,1.281-3.054l-2.615-17.559
		l12.437-12.669C199.919,165.264,200.211,164.021,199.844,162.891z M180.98,175.441c-0.701,0.715-1.026,1.717-0.879,2.707
		l1.946,13.072l-11.832-5.893c-0.446-0.223-0.936-0.334-1.422-0.334c-0.487,0-0.976,0.111-1.423,0.334l-11.832,5.893l1.947-13.072
		c0.146-0.99-0.178-1.992-0.879-2.707l-9.262-9.433l13.036-2.188c0.987-0.165,1.841-0.784,2.302-1.674l6.109-11.721l6.109,11.721
		c0.462,0.89,1.313,1.509,2.302,1.674l13.036,2.188L180.98,175.441z"/>
	<path fill="#FFBD44" d="M100,45.961c4.184,0,8.164-1.818,10.919-4.988c1.156-1.33,1.017-3.346-0.313-4.502
		c-1.332-1.157-3.348-1.016-4.504,0.314c-1.541,1.775-3.767,2.792-6.102,2.792s-4.559-1.018-6.102-2.792
		c-1.157-1.331-3.172-1.471-4.502-0.314c-1.331,1.156-1.471,3.172-0.314,4.502C91.836,44.143,95.816,45.961,100,45.961z"/>
</g>
</svg>
