<?xml version="1.0" encoding="utf-8"?>
<!-- Generator: Adobe Illustrator 16.0.0, SVG Export Plug-In . SVG Version: 6.00 Build 0)  -->
<!DOCTYPE svg PUBLIC "-//W3C//DTD SVG 1.1//EN" "http://www.w3.org/Graphics/SVG/1.1/DTD/svg11.dtd">
<svg version="1.1" id="Layer_1" xmlns="http://www.w3.org/2000/svg" xmlns:xlink="http://www.w3.org/1999/xlink" x="0px" y="0px"
	 width="200px" height="269.1px" viewBox="0 0 200 269.1" style="enable-background:new 0 0 200 269.1;" xml:space="preserve">
<style type="text/css">
<![CDATA[
	.st0{fill:#29ABE2;}
]]>
</style>
<path class="st0" d="M100,63c17.4,0,31.5-14.1,31.5-31.5C131.5,14.1,117.4,0,100,0S68.5,14.1,68.5,31.5C68.5,48.9,82.6,63,100,63z
	 M100,6.4c13.8,0,25.1,11.3,25.1,25.1S113.8,56.6,100,56.6S74.9,45.3,74.9,31.5S86.2,6.4,100,6.4z"/>
<path class="st0" d="M100,75.7c25.5,0,46.3,19.9,48,44.9H74.2c-1.8,0-3.2,1.4-3.2,3.2c0,1.8,1.4,3.2,3.2,3.2h77.1
	c1.8,0,3.2-1.4,3.2-3.2c0-30-24.4-54.5-54.5-54.5c-30,0-54.5,24.4-54.5,54.5c0,1.8,1.4,3.2,3.2,3.2h12.8c1.8,0,3.2-1.4,3.2-3.2
	c0-1.8-1.4-3.2-3.2-3.2H52C53.7,95.6,74.5,75.7,100,75.7L100,75.7z"/>
<path class="st0" d="M59.7,160.7l-17.5-2.9L34,142c-0.5-1.1-1.6-1.7-2.8-1.7s-2.3,0.7-2.8,1.7l-8.2,15.7l-17.5,2.9
	c-1.2,0.2-2.1,1-2.5,2.2s-0.1,2.4,0.8,3.2l12.4,12.7l-2.6,17.6c-0.2,1.2,0.3,2.4,1.3,3.1c1,0.7,2.2,0.8,3.3,0.3l15.9-7.9l15.9,7.9
	c0.5,0.2,0.9,0.3,1.4,0.3c0.7,0,1.3-0.2,1.9-0.6c1-0.7,1.5-1.9,1.3-3.1l-2.6-17.6l12.4-12.7c0.8-0.8,1.1-2.1,0.8-3.2
	C61.9,161.8,60.9,160.9,59.7,160.7z M43.4,175.4c-0.7,0.7-1,1.7-0.9,2.7l1.9,13.1l-11.8-5.9c-0.9-0.4-1.9-0.4-2.8,0L18,191.2
	l1.9-13.1c0.1-1-0.2-2-0.9-2.7L9.8,166l13-2.2c1-0.2,1.8-0.8,2.3-1.7l6.1-11.7l6.1,11.7c0.5,0.9,1.3,1.5,2.3,1.7l13,2.2L43.4,175.4z
	"/>
<path class="st0" d="M128.5,160.7l-17.5-2.9l-8.2-15.7c-0.5-1.1-1.6-1.7-2.8-1.7c-1.2,0-2.3,0.7-2.8,1.7L89,157.8l-17.5,2.9
	c-1.2,0.2-2.1,1-2.5,2.2s-0.1,2.4,0.8,3.2l12.4,12.7l-2.6,17.6c-0.2,1.2,0.3,2.4,1.3,3.1c1,0.7,2.2,0.8,3.3,0.3l15.9-7.9l15.9,7.9
	c0.5,0.2,0.9,0.3,1.4,0.3c0.7,0,1.3-0.2,1.9-0.6c1-0.7,1.5-1.9,1.3-3.1l-2.6-17.6l12.4-12.7c0.8-0.8,1.1-2.1,0.8-3.2
	C130.7,161.8,129.7,160.9,128.5,160.7z M112.2,175.4c-0.7,0.7-1,1.7-0.9,2.7l1.9,13.1l-11.8-5.9c-0.4-0.2-0.9-0.3-1.4-0.3
	s-1,0.1-1.4,0.3l-11.8,5.9l1.9-13.1c0.1-1-0.2-2-0.9-2.7l-9.3-9.4l13-2.2c1-0.2,1.8-0.8,2.3-1.7l6.1-11.7l6.1,11.7
	c0.5,0.9,1.3,1.5,2.3,1.7l13,2.2L112.2,175.4L112.2,175.4z"/>
<path class="st0" d="M199.8,162.9c-0.4-1.1-1.3-2-2.5-2.2l-17.5-2.9l-8.2-15.7c-0.5-1.1-1.6-1.7-2.8-1.7c-1.2,0-2.3,0.7-2.8,1.7
	l-8.2,15.7l-17.5,2.9c-1.2,0.2-2.1,1-2.5,2.2s-0.1,2.4,0.8,3.2l12.4,12.7l-2.6,17.6c-0.2,1.2,0.3,2.4,1.3,3.1c1,0.7,2.2,0.8,3.3,0.3
	l15.9-7.9l15.9,7.9c0.5,0.2,0.9,0.3,1.4,0.3c0.7,0,1.3-0.2,1.9-0.6c1-0.7,1.5-1.9,1.3-3.1l-2.6-17.6l12.4-12.7
	C199.9,165.3,200.2,164,199.8,162.9z M181,175.4c-0.7,0.7-1,1.7-0.9,2.7l1.9,13.1l-11.8-5.9c-0.4-0.2-0.9-0.3-1.4-0.3
	c-0.5,0-1,0.1-1.4,0.3l-11.8,5.9l1.9-13.1c0.1-1-0.2-2-0.9-2.7l-9.3-9.4l13-2.2c1-0.2,1.8-0.8,2.3-1.7l6.1-11.7l6.1,11.7
	c0.5,0.9,1.3,1.5,2.3,1.7l13,2.2L181,175.4z"/>
<path class="st0" d="M100,46c4.2,0,8.2-1.8,10.9-5c1.2-1.3,1-3.3-0.3-4.5c-1.3-1.2-3.3-1-4.5,0.3c-1.5,1.8-3.8,2.8-6.1,2.8
	s-4.6-1-6.1-2.8c-1.2-1.3-3.2-1.5-4.5-0.3c-1.3,1.2-1.5,3.2-0.3,4.5C91.8,44.1,95.8,46,100,46z"/>
<g>
	<path class="st0" d="M94.1,229.8l-17.5-2.9l-8.2-15.7c-0.5-1.1-1.6-1.7-2.8-1.7c-1.2,0-2.3,0.7-2.8,1.7l-8.2,15.7l-17.5,2.9
		c-1.2,0.2-2.1,1-2.5,2.2s-0.1,2.4,0.8,3.2l12.4,12.7l-2.6,17.6c-0.2,1.2,0.3,2.4,1.3,3.1c1,0.7,2.2,0.8,3.3,0.3l15.9-7.9l15.9,7.9
		c0.5,0.2,0.9,0.3,1.4,0.3c0.7,0,1.3-0.2,1.9-0.6c1-0.7,1.5-1.9,1.3-3.1l-2.6-17.6l12.4-12.7c0.8-0.8,1.1-2.1,0.8-3.2
		C96.3,230.8,95.3,230,94.1,229.8z M77.8,244.5c-0.7,0.7-1,1.7-0.9,2.7l1.9,13.1L67,254.4c-0.4-0.2-0.9-0.3-1.4-0.3s-1,0.1-1.4,0.3
		l-11.8,5.9l1.9-13.1c0.1-1-0.2-2-0.9-2.7l-9.3-9.4l13-2.2c1-0.2,1.8-0.8,2.3-1.7l6.1-11.7l6.1,11.7c0.5,0.9,1.3,1.5,2.3,1.7l13,2.2
		L77.8,244.5L77.8,244.5z"/>
	<path class="st0" d="M165.4,232c-0.4-1.1-1.3-2-2.5-2.2l-17.5-2.9l-8.2-15.7c-0.5-1.1-1.6-1.7-2.8-1.7c-1.2,0-2.3,0.7-2.8,1.7
		l-8.2,15.7l-17.5,2.9c-1.2,0.2-2.1,1-2.5,2.2s-0.1,2.4,0.8,3.2l12.4,12.7l-2.6,17.6c-0.2,1.2,0.3,2.4,1.3,3.1
		c1,0.7,2.2,0.8,3.3,0.3l15.9-7.9l15.9,7.9c0.5,0.2,0.9,0.3,1.4,0.3c0.7,0,1.3-0.2,1.9-0.6c1-0.7,1.5-1.9,1.3-3.1l-2.6-17.6
		l12.4-12.7C165.5,234.3,165.8,233.1,165.4,232z M146.6,244.5c-0.7,0.7-1,1.7-0.9,2.7l1.9,13.1l-11.8-5.9c-0.4-0.2-0.9-0.3-1.4-0.3
		c-0.5,0-1,0.1-1.4,0.3l-11.8,5.9l1.9-13.1c0.1-1-0.2-2-0.9-2.7l-9.3-9.4l13-2.2c1-0.2,1.8-0.8,2.3-1.7l6.1-11.7l6.1,11.7
		c0.5,0.9,1.3,1.5,2.3,1.7l13,2.2L146.6,244.5z"/>
</g>
</svg>
