<?xml version="1.0" encoding="utf-8"?>
<!-- Generator: Adobe Illustrator 18.1.1, SVG Export Plug-In . SVG Version: 6.00 Build 0)  -->
<svg version="1.1" id="Layer_1" xmlns="http://www.w3.org/2000/svg" xmlns:xlink="http://www.w3.org/1999/xlink" x="0px" y="0px"
	 viewBox="0 233 1280 335" enable-background="new 0 233 1280 335" xml:space="preserve">
<g display="none">
	<path display="inline" fill="#ACA8A1" d="M407.3,107.6c0-0.3-109.2,0-109.2,0c-161.5,0-292.6,131-292.6,292.6
		c0,161.7,131,292.7,292.7,292.7l205.3-0.2c51.6,0,93.4-41.4,93.4-93.1l0.2-178.5l141.9,223.8c19.1,29,52.1,48.2,89.6,48.2
		c59.2,0,107.3-48,107.3-107.3V421l141.9,223.8c19.1,29,52.1,48.2,89.6,48.2c59.2,0,107.3-48,107.3-107.3V106.9h-73.1v478.7
		c0,19-15.3,34.2-34.2,34.2c-11.9,0-22.3-5.9-28.4-15L886.1,207.1c-2.3-3.5-6.3-5.6-10.7-5.6c-7.1,0-12.9,5.8-12.9,12.9v371.4
		c0,19-15.3,34.2-34.2,34.2c-11.9,0-22.3-5.9-28.4-15L547.5,207.1c-2.3-3.5-6.3-5.6-10.7-5.6c-7.1,0-12.9,5.8-12.9,12.9v385.1
		c0,11.2-9.1,20.3-20.3,20.3l-205.3-0.2c-121.3,0-219.6-98.3-219.6-219.6s98.3-219.6,219.6-219.6h109.2v-72.8H407.3z"/>
	<path display="inline" fill="#ACA8A1" d="M419.1,526.1c5.8,0,10.4-4.6,10.4-10.4V214.5c0-59.2,48-107.3,107.3-107.3
		c37.6,0,70.6,19.3,89.8,48.5L768,377.6l0.2-163c0-59.2,48-107.3,107.3-107.3c37.6,0,70.6,19.3,89.8,48.5l141.4,221.8V107.3h73.6
		L1180,586c0,7.1-5.8,12.9-12.9,12.9c-4.3,0-7.9-2-10.4-5.1l-253-398.3c-6.1-9.1-16.5-15-28.4-15c-19,0-34.2,15.3-34.2,34.2V586
		c0,7.1-5.8,12.9-12.9,12.9c-4.3,0-7.9-2-10.4-5.1L565.2,195.4c-6.1-9.1-16.5-15-28.4-15c-19,0-34.2,15.3-34.2,34.2l0.2,374.4
		c0,5.8-4.6,10.4-10.4,10.4H298.2c-109.6-0.2-198.3-89.6-198.3-199.2s88.8-199,198.3-199c0,0,109.2-0.5,109.2,0c0,0.5,0,73.8,0,73.8
		H298.2c-69.1,0-125.2,56.1-125.2,125.2S229,526.1,298.2,526.1H419.1z"/>
</g>
<g>
	<path fill="#7f8b8d" d="M778.3,331.7c-20,0-36.1,5.4-52.8,13.5c0.2-47.4,0.7-88.6,1.8-104.3l-97.4,18.8v8.7l9.4,1.2
		c13.5,1.8,18.8,9.9,20.3,27.9c3.1,34.7,2.6,221.1,0,251c26.2,5.9,54.6,10.4,83,10.4c77.2,0,123.8-47.7,123.8-123.3
		C866.6,375.1,828.8,331.7,778.3,331.7 M744.3,543.6c-5.6,0-12.7-1-16.7-1.7c-1.5-21-2.5-107.1-2.3-182.3c8.9-3,15-3.8,22.8-3.8
		c32,0,49.8,36.8,50,83.5C798.2,498.5,776,543.6,744.3,543.6z"/>
	<path fill="#7f8b8d" d="M262.8,247.9H6.7v12.2l13.5,1.8c19.5,2.8,27.1,15,29.4,42.6c4.5,52.8,3.8,147.2,0,192.7
		c-2.3,27.6-9.7,39.6-29.4,42.4l-13.5,1.8v12.4h164.5v-12.4l-17.3-1.8c-19.5-2.8-27.1-15-29.4-42.4c-1.7-18.8-2.6-50.5-3-87.6
		l34,1.2c22.6,0.7,32.2,17.5,37.5,42.4h12.7V349.7h-12.5c-5.4,24.8-14.9,41.6-37.5,42.4l-34,0.8c-0.3-48.8,0.7-95.9,3-124.1h50.5
		c39.4,0,60.4,25.1,73.8,69.3l15.2-4.1L262.8,247.9"/>
	<path fill="#7f8b8d" d="M345.9,329.2c72.8,0,108.9,49.3,108.9,114.4c0,63.5-40.8,115.5-113.5,115.5s-108.9-49.3-108.9-114.4
		C232.4,381.2,273.2,329.2,345.9,329.2 M342.2,343.2c-32.2,0-41.1,43.6-41.1,100.8c0,55.8,14.2,100.8,44.1,100.8
		c32.2,0,41.1-43.4,41.1-100.8C386.2,388.3,372,343.2,342.2,343.2z"/>
	<path fill="#7f8b8d" d="M884.4,446c0-60.1,38-116.8,112.9-116.8c61.1,0,90.1,45.2,90.4,104.5H951.5c-1.5,53.6,25.7,93.1,77.7,93.1
		c22.9,0,35.1-5.6,49-16.3l6.4,7.8c-15,21-46.5,40.8-88.4,40.8C930.8,559.1,884.4,512.5,884.4,446 M952.2,418.5l68.2-1.5
		c0.3-30.2-4.5-73.4-29-73.4C966.7,343.6,952.7,384.5,952.2,418.5z"/>
	<path fill="#7f8b8d" d="M1260.3,341.1c-16.2-7.4-40.4-11.9-65.7-11.9c-54.8,0-88,32-88,69.5c0,38.6,24.9,53.8,59.4,66
		c37.1,13.2,46.9,23.6,46.9,40.8c0,17.7-13,34.2-36.3,34.2c-27.6,0-48.2-16.2-64.2-60.7l-11.2,3l2,63.7c18.2,7.3,49,13.5,76.9,13.5
		c57.9,0,93.2-28.2,93.2-74.3c0-30.9-15-47.7-53.1-62.4c-41.1-16-55.3-25.9-55.3-45c0-19.1,12.7-32.3,30.2-32.3
		c26.4,0,44.4,16.3,56.3,54.8l11.2-2.8L1260.3,341.1"/>
	<path fill="#7f8b8d" d="M644.6,335.3c-24.6-14.7-69.3-7.8-91.9,44.4l1-50.7l-97,18.8v8.7l9.6,1.2c13.5,2,18.8,9.9,20.3,27.9
		c3.1,34.7,2.6,96.9,0,126.7c-1.7,18.2-6.8,26.1-20.3,27.9l-9.6,1.2v12.4h135.1v-12.4l-17.7-1.2c-13.5-1.8-18.8-9.7-20.5-27.9
		c-2.5-27.4-3-82-0.7-117.7c6.4-10.7,38.3-19.5,67.7,0.3L644.6,335.3"/>
	<path fill="#7f8b8d" d="M778.3,331.7c-20,0-36.1,5.4-52.8,13.5c0.2-47.4,0.7-88.6,1.8-104.3l-97.4,18.8v8.7l9.4,1.2
		c13.5,1.8,18.8,9.9,20.3,27.9c3.1,34.7,2.6,221.1,0,251c26.2,5.9,54.6,10.4,83,10.4c77.2,0,123.8-47.7,123.8-123.3
		C866.6,375.1,828.8,331.7,778.3,331.7 M744.3,543.6c-5.6,0-12.7-1-16.7-1.7c-1.5-21-2.5-107.1-2.3-182.3c8.9-3,15-3.8,22.8-3.8
		c32,0,49.8,36.8,50,83.5C798.2,498.5,776,543.6,744.3,543.6z"/>
	<path fill="#7f8b8d" d="M262.8,247.9H6.7v12.2l13.5,1.8c19.5,2.8,27.1,15,29.4,42.6c4.5,52.8,3.8,147.2,0,192.7
		c-2.3,27.6-9.7,39.6-29.4,42.4l-13.5,1.8v12.4h164.5v-12.4l-17.3-1.8c-19.5-2.8-27.1-15-29.4-42.4c-1.7-18.8-2.6-50.5-3-87.6
		l34,1.2c22.6,0.7,32.2,17.5,37.5,42.4h12.7V349.7h-12.5c-5.4,24.8-14.9,41.6-37.5,42.4l-34,0.8c-0.3-48.8,0.7-95.9,3-124.1h50.5
		c39.4,0,60.4,25.1,73.8,69.3l15.2-4.1L262.8,247.9"/>
	<path fill="#7f8b8d" d="M345.9,329.2c72.8,0,108.9,49.3,108.9,114.4c0,63.5-40.8,115.5-113.5,115.5s-108.9-49.3-108.9-114.4
		C232.4,381.2,273.2,329.2,345.9,329.2 M342.2,343.2c-32.2,0-41.1,43.6-41.1,100.8c0,55.8,14.2,100.8,44.1,100.8
		c32.2,0,41.1-43.4,41.1-100.8C386.2,388.3,372,343.2,342.2,343.2z"/>
	<path fill="#7f8b8d" d="M884.4,446c0-60.1,38-116.8,112.9-116.8c61.1,0,90.1,45.2,90.4,104.5H951.5c-1.5,53.6,25.7,93.1,77.7,93.1
		c22.9,0,35.1-5.6,49-16.3l6.4,7.8c-15,21-46.5,40.8-88.4,40.8C930.8,559.1,884.4,512.5,884.4,446 M952.2,418.5l68.2-1.5
		c0.3-30.2-4.5-73.4-29-73.4C966.7,343.6,952.7,384.5,952.2,418.5z"/>
	<path fill="#7f8b8d" d="M1260.3,341.1c-16.2-7.4-40.4-11.9-65.7-11.9c-54.8,0-88,32-88,69.5c0,38.6,24.9,53.8,59.4,66
		c37.1,13.2,46.9,23.6,46.9,40.8c0,17.7-13,34.2-36.3,34.2c-27.6,0-48.2-16.2-64.2-60.7l-11.2,3l2,63.7c18.2,7.3,49,13.5,76.9,13.5
		c57.9,0,93.2-28.2,93.2-74.3c0-30.9-15-47.7-53.1-62.4c-41.1-16-55.3-25.9-55.3-45c0-19.1,12.7-32.3,30.2-32.3
		c26.4,0,44.4,16.3,56.3,54.8l11.2-2.8L1260.3,341.1"/>
	<path fill="#7f8b8d" d="M644.6,335.3c-24.6-14.7-69.3-7.8-91.9,44.4l1-50.7l-97,18.8v8.7l9.6,1.2c13.5,2,18.8,9.9,20.3,27.9
		c3.1,34.7,2.6,96.9,0,126.7c-1.7,18.2-6.8,26.1-20.3,27.9l-9.6,1.2v12.4h135.1v-12.4l-17.7-1.2c-13.5-1.8-18.8-9.7-20.5-27.9
		c-2.5-27.4-3-82-0.7-117.7c6.4-10.7,38.3-19.5,67.7,0.3L644.6,335.3"/>
</g>
<g display="none">
	<path id="Carrés" display="inline" fill="#ACA8A1" d="M7.9,219.8h382.3v360.4H7.9V219.8z M448.8,580.2h382.3V219.8H448.8V580.2z
		 M889.7,580.2h382.3V219.8H889.7V580.2z"/>
	<path id="B" display="inline" fill="#7f8b8d" d="M683.8,391.9c0,0,33.3-14.2,33-52c0,0,5.1-61.7-76.7-69.3h-90.8v258.9h104.1
		c0,0,87,0.3,87-73.1C740.2,456.4,742.4,406.6,683.8,391.9z M595.4,310.9h37.1c38.6,2,37.1,30.7,37.1,30.7
		c0,35.6-42.6,36.3-42.6,36.3h-31.7V310.9z M692.7,452.8c0,39.1-48.7,36.8-48.7,36.8h-48.7v-70.8H644
		C694.2,418.5,692.7,452.8,692.7,452.8z"/>
	<path id="B_1_" display="inline" fill="#7f8b8d" d="M242.9,391.9c0,0,33.3-14.2,33-52c0,0,5.1-61.7-76.7-69.3h-90.8v258.9h104.1
		c0,0,87,0.3,87-73.1C299.5,456.4,301.5,406.6,242.9,391.9z M154.5,310.9h37.1c38.6,2,37.1,30.7,37.1,30.7
		c0,35.6-42.6,36.3-42.6,36.3h-31.7V310.9z M252,452.8c0,39.1-48.7,36.8-48.7,36.8h-48.8v-70.8h48.7
		C253.5,418.5,252,452.8,252,452.8z"/>
	<path id="C" display="inline" fill="#7f8b8d" d="M1194.2,289.1V337c0,0-46.7-28.7-98.3-29.2c0,0-96.2-1.8-100.7,92.2
		c0,0-3.5,86.6,99.5,91.6c0,0,43.2,5.3,101.8-32.2v49.7c0,0-78.5,46.7-169.6,10.7c0,0-76.6-28.1-79.5-119.6c0,0-3.1-94.4,98.8-125.6
		c0,0,27.2-10.4,76.2-5.8C1122.6,268.7,1151.8,271.5,1194.2,289.1z"/>
</g>
<g display="none">
	<g display="inline">
		<path fill="#ACA8A1" d="M482,347.5v79h-28.9v-79h-29.2v-25.1h87.2v25.1H482z"/>
		<path fill="#ACA8A1" d="M578.5,395.1h-45.8c0.9,8.6,5.9,12.5,13.2,12.5c6.8,0,12.5-1.5,20.2-5.5l10.3,17.1
			c-9.7,5.7-19.6,8.9-31.8,8.9c-23.5,0-36.5-16.7-36.5-40.6c0-26.9,15.2-40.8,35.7-40.8c21.4,0,34.8,14.1,34.8,43.1
			C578.7,392.1,578.7,393.8,578.5,395.1z M543.1,366.5c-6.1,0-9.5,4.2-10.4,11.9H555C553.7,370.6,551,366.5,543.1,366.5z"/>
		<path fill="#ACA8A1" d="M628.4,428.1c-22.9,0-36.6-14.6-36.6-40.9c0-24,12.2-40.5,37.2-40.5c14.7,0,23.2,6.8,30.1,17.9l-18.5,14
			c-3.7-6.8-6.3-10.1-12.1-10.1c-6.8,0-10.3,6.8-10.3,19.2c0,12.4,3.7,18.7,11,18.7c5.1,0,8.6-2.8,13.5-10.1l17,13.2
			C650.7,422.9,642.2,428.1,628.4,428.1z"/>
		<path fill="#ACA8A1" d="M719.7,426.5v-44.3c0-10.1-3.4-12.8-8.9-12.8c-5.7,0-9.1,2.7-9.1,12.5v44.6h-26.8v-97.8l26.8-10.7v35.6
			c4.9-3.7,10.4-6.8,19.6-6.8c17.1,0,25.3,11.5,25.3,32v47.8H719.7z"/>
		<path fill="#ACA8A1" d="M810.8,428.1c-31,0-47.5-22.9-47.5-53.7c0-33.5,19.6-53.7,47.6-53.7c25.6,0,35.7,11,42.9,30.7l-26.2,10.3
			c-3.7-9.7-7.3-15.8-16.8-15.8c-12.1,0-17.3,12.1-17.3,28.6c0,15.9,5.1,28.6,17.6,28.6c9.1,0,12.9-4.9,18.6-14.7l24.4,12.9
			C847.1,414.9,835.5,428.1,810.8,428.1z"/>
		<path fill="#ACA8A1" d="M919.9,377.8c-3.4-3.7-7.3-6.5-12.5-6.5c-6.6,0-10.6,3.1-10.6,12.6v42.6h-26.8v-78.1h26.8v5.7
			c4.6-4.5,9.8-7.3,16.7-7.3c5.7,0,9.5,1.3,12.6,3.3L919.9,377.8z"/>
		<path fill="#ACA8A1" d="M983.6,426.5v-5.2c-4.8,3.7-10.4,6.9-19.5,6.9c-17.1,0-25.3-11.5-25.3-32v-47.8h26.9v44.3
			c0,10.1,3.4,12.8,8.9,12.8s8.9-2.7,8.9-12.5v-44.6h26.9v78.1H983.6z"/>
		<path fill="#ACA8A1" d="M1074.7,426.5v-44.3c0-10.1-3.4-12.8-8.9-12.8c-5.7,0-9.1,2.7-9.1,12.5v44.6h-26.8v-78.1h26.8v5.2
			c4.9-3.7,10.4-6.8,19.6-6.8c17.1,0,25.3,11.5,25.3,32v47.8H1074.7z"/>
		<path fill="#ACA8A1" d="M1153.8,428.1c-22.9,0-36.6-14.6-36.6-40.9c0-24,12.2-40.5,37.2-40.5c14.7,0,23.2,6.8,30.1,17.9l-18.5,14
			c-3.7-6.8-6.3-10.1-12.1-10.1c-6.9,0-10.3,6.8-10.3,19.2c0,12.4,3.7,18.7,11,18.7c5.1,0,8.6-2.8,13.5-10.1l17,13.2
			C1176.1,422.9,1167.6,428.1,1153.8,428.1z"/>
		<path fill="#ACA8A1" d="M1245.1,426.5v-44.3c0-10.1-3.4-12.8-8.9-12.8c-5.7,0-9.1,2.7-9.1,12.5v44.6h-26.8v-97.8l26.8-10.7v35.6
			c4.9-3.7,10.4-6.8,19.6-6.8c17.1,0,25.3,11.5,25.3,32v47.8H1245.1z"/>
	</g>
	<g display="inline">
		<polygon fill="#ACA8A1" points="6,278 6,337 66,337 66,456 125,456 125,337 185,337 185,278 		"/>
		<polygon fill="#ACA8A1" points="244,397 244,337 185,337 185,456 363,456 363,397 		"/>
		<rect x="244" y="278" fill="#ACA8A1" width="119" height="59"/>
	</g>
</g>
</svg>
