<?xml version="1.0" encoding="UTF-8"?>
<!-- Generator: Adobe Illustrator 16.0.0, SVG Export Plug-In . SVG Version: 6.00 Build 0)  -->
<!DOCTYPE svg PUBLIC "-//W3C//DTD SVG 1.1//EN" "http://www.w3.org/Graphics/SVG/1.1/DTD/svg11.dtd">
<svg version="1.1" id="Layer_1" xmlns="http://www.w3.org/2000/svg" xmlns:xlink="http://www.w3.org/1999/xlink" x="0px" y="0px" width="1024px" height="768px" viewBox="0 0 1024 768" enable-background="new 0 0 1024 768" xml:space="preserve">
<g>
	<polyline fill="#7F8C8D" points="798.292,609.575 798.292,625.251 794.244,625.251 794.244,609.575 788.718,609.575    788.718,605.599 803.806,605.599 803.806,609.575 798.292,609.575  "/>
	<polyline fill="#7F8C8D" points="820.697,625.251 820.697,616.013 816.924,625.251 814.402,625.251 810.666,616.013    810.666,625.251 806.605,625.251 806.605,605.599 810.438,605.599 815.651,618.729 820.972,605.599 824.757,605.599    824.757,625.251 820.697,625.251  "/>
	<path fill="#7F8C8D" d="M91.13,484.782h42.406c-2.373,4.984-5.34,9.502-8.788,13.406c-1.315,1.586-2.822,3.16-4.57,4.793   c-1.063,0.984-2.265,1.898-3.515,2.715c-7.436,5.49-16.169,8.674-25.533,8.674c-27,0-48.87-26.297-48.87-58.732   c0-32.43,21.87-58.709,48.87-58.709c17.437,0,34.346,9.088,42.406,27.504h40.574c-1.718-12.553-7.376-23.82-13.353-33.414   c-4.318-6.469-9.521-12.133-15.557-16.818c-7.293-5.646-15.582-10.001-24.609-12.902c-8.992-2.901-18.41-4.367-27.997-4.367   c-14.235,0-27.264,2.571-38.724,7.616c-11.455,5.082-21.275,12.182-29.21,21.101c-7.905,8.897-14.014,19.456-18.2,31.342   c-4.175,11.832-6.289,24.826-6.289,38.646c0,13.443,2.097,26.176,6.265,37.877c4.187,11.75,10.289,22.08,18.146,30.863   c7.886,8.732,17.707,15.701,29.18,20.686c11.431,4.986,24.446,7.484,38.688,7.484c9.22,0,18.446-1.934,27.462-5.682   c6.457-2.715,12.554-6.98,18.2-12.566v14.465h36.862V447.499H91.13V484.782 M705.815,426.901   c-3.88-5.297-8.938-9.465-15.005-12.432c-5.898-2.836-12.458-4.758-19.533-5.773c-6.836-0.912-13.683-1.381-20.387-1.381   c-7.399,0-14.896,0.721-22.235,2.203c-7.521,1.484-14.405,4.068-20.447,7.635c-6.175,3.621-11.328,8.518-15.329,14.543   c-4.072,6.09-6.391,13.785-6.931,22.801l-0.085,2.883h43.487l0.145-2.283c0.564-5.963,2.427-10.186,5.49-12.553   c3.304-2.492,8.049-3.791,14.151-3.791c2.943,0,5.742,0.234,8.289,0.602c2.235,0.354,4.192,1.021,5.839,2.029   c1.489,0.871,2.666,2.139,3.604,3.838c0.913,1.676,1.382,4.17,1.382,7.359c0.168,3.404-0.985,4.727-1.838,5.447   c-1.874,1.551-4.578,2.775-7.989,3.641c-3.809,0.961-8.253,1.705-13.227,2.162c-5.237,0.504-10.631,1.201-16.025,2.055   c-5.43,0.854-10.907,2.055-16.302,3.508c-5.694,1.537-10.824,3.904-15.233,7.002c-4.576,3.186-8.349,7.473-11.231,12.809   c-2.859,5.32-4.325,12.107-4.325,20.121c0,7.256,1.238,13.658,3.736,19.053c2.487,5.395,6.031,9.971,10.487,13.525   c4.373,3.473,9.551,6.092,15.377,7.738c5.671,1.609,11.809,2.426,18.345,2.426c8.361,0,16.649-1.262,24.651-3.713   c5.897-1.801,11.292-4.611,16.097-8.373c0.072,0.217,0.108,0.445,0.192,0.697v8.037h40.941l-0.072-100.52   C711.833,439.491,709.803,432.325,705.815,426.901z M668.25,494.501c0,1.826-0.204,4.359-0.589,7.604   c-0.348,2.836-1.321,5.707-2.907,8.506c-1.489,2.691-3.904,5.057-7.123,7.004c-3.172,1.994-7.941,3.002-14.152,3.002   c-2.559,0-5.117-0.287-7.532-0.719c-2.175-0.385-4.06-1.082-5.646-2.115c-1.418-0.889-2.522-2.09-3.376-3.688   c-0.841-1.586-1.286-3.725-1.286-6.248c0-2.727,0.445-4.865,1.286-6.498c0.9-1.646,2.102-3.039,3.532-4.133   c1.537-1.178,3.447-2.115,5.598-2.811c2.463-0.793,4.925-1.443,7.376-1.898c2.739-0.469,5.526-0.914,8.217-1.189   c2.812-0.324,5.622-0.758,8.385-1.322c2.716-0.504,5.322-1.201,7.737-2.018c0.156-0.072,0.312-0.145,0.48-0.191V494.501z    M201.021,548.692h43.584V361.298h-43.584V548.692z M386.96,427.214c-6.205-6.307-13.821-11.256-22.591-14.732   c-8.728-3.436-18.561-5.166-29.222-5.166c-10.674,0-20.477,1.73-29.114,5.166c-8.68,3.477-16.254,8.426-22.465,14.732   c-6.223,6.338-11.088,14.074-14.445,23.023c-3.34,8.873-5.028,18.867-5.028,29.68c0,10.859,1.688,20.83,5.028,29.637   c3.363,8.828,8.223,16.518,14.445,22.861c6.229,6.307,13.803,11.195,22.501,14.596c8.631,3.352,18.41,5.057,29.078,5.057   c10.649,0,20.477-1.705,29.192-5.057c8.787-3.4,16.403-8.289,22.62-14.596c6.229-6.309,11.088-14.008,14.464-22.861   c3.328-8.865,5.021-18.777,5.021-29.637c0-10.812-1.693-20.783-5.01-29.68C398.048,441.288,393.19,433.521,386.96,427.214z    M361.438,494.501c-0.906,4.48-2.456,8.553-4.643,12.049c-2.061,3.375-4.901,6.127-8.403,8.109   c-3.478,2.018-7.94,3.027-13.244,3.027c-5.292,0-9.713-1.01-13.089-3.004c-3.453-2.006-6.252-4.758-8.313-8.133   c-2.186-3.496-3.742-7.568-4.637-12.049c-0.955-4.637-1.447-9.527-1.447-14.441c0-4.936,0.492-9.85,1.447-14.619   c0.895-4.504,2.445-8.566,4.625-12.014c2.066-3.309,4.89-6.09,8.373-8.205c3.389-2.012,7.761-3.051,13.041-3.051   c5.291,0,9.712,1.039,13.208,3.082c3.58,2.15,6.361,4.834,8.445,8.174c2.187,3.447,3.73,7.473,4.637,12.014   c0.955,4.793,1.431,9.73,1.431,14.619C362.869,484.938,362.393,489.767,361.438,494.501z M547.42,424.915   c-5.489-5.936-11.725-10.41-18.607-13.281c-6.812-2.871-13.84-4.318-20.868-4.318c-8.528,0-16.878,1.639-24.795,4.979   c-4.865,2.049-9.154,4.83-12.854,8.295v-59.291h-43.572v187.417h41.626v-9.551c3.483,3.473,7.628,6.188,12.445,8.133   c7.989,3.137,17.119,4.77,27.114,4.77c7.016,0,14.067-1.453,20.891-4.361c6.859-2.857,13.119-7.34,18.597-13.238   c5.43-5.898,9.899-13.502,13.273-22.584c3.316-9.021,5.022-19.881,5.022-32.207c0-12.303-1.694-23.127-5.022-32.178   C557.308,438.411,552.851,430.813,547.42,424.915z M520.463,494.753c-1.082,4.564-2.787,8.637-5.046,12.121   c-2.187,3.303-4.949,6.02-8.205,7.977c-3.135,1.85-7.088,2.836-11.736,2.836c-4.505,0-8.422-0.986-11.665-2.871   c-3.315-1.947-6.115-4.639-8.289-7.941c-2.271-3.508-3.953-7.58-5.033-12.121c-1.094-4.697-1.646-9.623-1.646-14.693   c0-5.248,0.553-10.258,1.646-14.955c1.08-4.578,2.763-8.686,5.033-12.115c2.198-3.375,4.913-5.994,8.301-7.982   c3.243-1.893,7.16-2.836,11.653-2.836c4.648,0,8.602,0.943,11.761,2.836c3.292,1.988,5.971,4.607,8.181,7.982   c2.259,3.43,3.94,7.502,5.046,12.115c1.069,4.697,1.634,9.742,1.634,14.955C522.097,485.069,521.533,490.019,520.463,494.753z    M735.848,361.298v187.394h43.571V361.298H735.848z"/>
	<path fill="#7F8C8D" d="M1022.002,349.79c-9.299-9.796-286.335-207.041-286.335-207.041V285.97l173.998,125.441   c0.289,0.156,7.726,4.666,8.205,10.879c-0.479,6.223-8.205,10.889-8.205,10.889l-76.703,55.16v136.793   c0,0,179.705-127.977,188.932-137.227l1.934-1.947V351.712L1022.002,349.79"/>
</g>
</svg>