<?xml version="1.0" encoding="utf-8"?>
<!-- Generator: Adobe Illustrator 16.0.0, SVG Export Plug-In . SVG Version: 6.00 Build 0)  -->
<!DOCTYPE svg PUBLIC "-//W3C//DTD SVG 1.1//EN" "http://www.w3.org/Graphics/SVG/1.1/DTD/svg11.dtd">
<svg version="1.1" id="Layer_1" xmlns="http://www.w3.org/2000/svg" xmlns:xlink="http://www.w3.org/1999/xlink" x="0px" y="0px"
	 width="200px" height="200px" viewBox="0 0 200 200" enable-background="new 0 0 200 200" xml:space="preserve">
<g>
	<path fill="#FFBD44" d="M182.805,178.033l-26.479-63.922c-0.674-1.629-2.541-2.402-4.169-1.729c-1.63,0.677-2.402,2.543-1.729,4.17
		l23.938,57.788l-21.833-6.326c-1.434-0.416-2.965,0.219-3.684,1.526l-10.967,19.911L112.2,127.445
		c29.644-5.717,52.104-31.853,52.104-63.139C164.307,28.848,135.459,0,100,0C64.542,0,35.694,28.848,35.694,64.306
		c0,14.362,4.734,27.639,12.722,38.354l-31.22,75.373c-0.469,1.134-0.248,2.436,0.571,3.35c0.818,0.914,2.088,1.278,3.266,0.938
		l25.759-7.466l12.936,23.492c0.563,1.023,1.637,1.652,2.795,1.652c0.059,0,0.118-0.002,0.177-0.005
		c1.225-0.067,2.302-0.831,2.772-1.966l24.739-59.725c0.674-1.629-0.099-3.496-1.728-4.171c-1.628-0.674-3.495,0.101-4.17,1.728
		l-22.198,53.591L51.15,169.541c-0.72-1.309-2.251-1.941-3.684-1.525l-21.833,6.325l27.403-66.157
		C64.78,120.746,81.488,128.611,100,128.611c1.911,0,3.801-0.09,5.67-0.252l28.859,69.67c0.469,1.135,1.547,1.897,2.771,1.966
		c0.06,0.003,0.118,0.005,0.179,0.005c1.157,0,2.23-0.629,2.795-1.652l12.936-23.492l25.76,7.465
		c1.18,0.343,2.447-0.022,3.266-0.938C183.054,180.468,183.273,179.167,182.805,178.033L182.805,178.033z M42.077,64.306
		c0-31.939,25.984-57.923,57.923-57.923c31.939,0,57.922,25.984,57.922,57.923c0,31.938-25.982,57.922-57.922,57.922
		C68.061,122.229,42.077,96.245,42.077,64.306z"/>
	<path fill="#FFBD44" d="M136.876,52.324c-0.367-1.131-1.334-1.964-2.507-2.161l-21.477-3.604l-10.062-19.31
		c-0.55-1.055-1.641-1.717-2.83-1.717c-1.189,0-2.28,0.662-2.83,1.717l-10.064,19.31l-21.475,3.604
		c-1.173,0.197-2.139,1.03-2.507,2.161c-0.368,1.131-0.076,2.374,0.758,3.222l15.255,15.539l-3.208,21.538
		c-0.175,1.177,0.318,2.353,1.281,3.052c0.961,0.699,2.233,0.805,3.298,0.275L100,86.242l19.492,9.707
		c0.449,0.225,0.938,0.335,1.422,0.335c0.663,0,1.32-0.206,1.877-0.609c0.963-0.7,1.455-1.875,1.279-3.052l-3.207-21.538
		l15.256-15.539C136.952,54.697,137.244,53.455,136.876,52.324z M115.195,67.747c-0.701,0.714-1.027,1.716-0.879,2.706l2.539,17.053
		l-15.434-7.686c-0.447-0.223-0.935-0.334-1.423-0.334c-0.487,0-0.975,0.111-1.422,0.334l-15.434,7.686l2.541-17.053
		c0.148-0.99-0.178-1.992-0.879-2.706L72.727,55.444L89.73,52.59c0.987-0.166,1.839-0.785,2.302-1.672L100,35.629l7.969,15.29
		c0.463,0.888,1.314,1.507,2.301,1.672l17.004,2.854L115.195,67.747L115.195,67.747z"/>
	<path fill="#FFBD44" d="M148.346,67.525c-1.748-0.233-3.352,0.997-3.582,2.745c-2.961,22.344-22.205,39.193-44.764,39.193
		c-24.899,0-45.157-20.257-45.157-45.157S75.101,19.149,100,19.149c22.559,0,41.803,16.849,44.764,39.193
		c0.23,1.748,1.838,2.979,3.582,2.745c1.746-0.231,2.978-1.836,2.744-3.583c-3.379-25.505-25.343-44.738-51.09-44.738
		c-28.419,0-51.54,23.12-51.54,51.54c0,28.419,23.121,51.54,51.54,51.54c25.747,0,47.711-19.233,51.09-44.738
		C151.322,69.361,150.093,67.757,148.346,67.525L148.346,67.525z"/>
</g>
</svg>
