<?xml version="1.0" encoding="utf-8"?>
<!-- Generator: Adobe Illustrator 16.0.0, SVG Export Plug-In . SVG Version: 6.00 Build 0)  -->
<!DOCTYPE svg PUBLIC "-//W3C//DTD SVG 1.1//EN" "http://www.w3.org/Graphics/SVG/1.1/DTD/svg11.dtd">
<svg version="1.1" id="Layer_1" xmlns="http://www.w3.org/2000/svg" xmlns:xlink="http://www.w3.org/1999/xlink" x="0px" y="0px"
	 width="200px" height="200px" viewBox="0 0 200 200" enable-background="new 0 0 200 200" xml:space="preserve">
<g>
	<path fill="#FFBD44" d="M36.077,88.397l-10.23-0.03c-0.259,0-0.47-0.211-0.47-0.471v-50.95c0-1.21-0.683-2.316-1.766-2.857
		L12.013,28.29l11.598-5.799c1.082-0.541,1.766-1.647,1.766-2.857V6.858c0-0.259,0.211-0.47,0.47-0.47h141.28
		c0.26,0,0.471,0.211,0.471,0.47v71.957c0,1.764,1.43,3.194,3.193,3.194s3.193-1.43,3.193-3.194V6.858
		c0-3.782-3.076-6.858-6.857-6.858H25.847c-3.782,0-6.858,3.077-6.858,6.858V17.66L3.443,25.434
		c-1.082,0.541-1.766,1.646-1.766,2.856s0.683,2.316,1.766,2.856l15.546,7.773v48.976c0,3.782,3.077,6.859,6.849,6.859l10.22,0.031
		c1.769,0,3.198-1.424,3.204-3.185C39.267,89.836,37.841,88.402,36.077,88.397L36.077,88.397z"/>
	<path fill="#FFBD44" d="M198.322,104.743c0-9.014-7.332-16.346-16.346-16.346H141.99c7.055-12.97,10.893-29.076,10.893-46.018
		c0-9.014-7.332-16.346-16.346-16.346s-16.346,7.333-16.346,16.346c0,25.374-20.644,46.017-46.018,46.017H48.843
		c-1.765,0-3.194,1.43-3.194,3.194v105.215c0,1.764,1.43,3.193,3.194,3.193h25.331c1.764,0,3.194-1.43,3.194-3.193V94.685
		c27.415-1.657,49.212-24.481,49.212-52.305c0-5.491,4.467-9.958,9.957-9.958c5.492,0,9.959,4.467,9.959,9.958
		c0,17.94-4.546,34.799-12.799,47.469c-0.641,0.982-0.689,2.235-0.133,3.266c0.559,1.03,1.637,1.672,2.809,1.672l45.604-0.001
		c5.49,0,9.957,4.467,9.957,9.958c0,5.49-4.467,9.958-9.957,9.958h-16.16c-1.766,0-3.194,1.43-3.194,3.192
		c0,1.764,1.43,3.194,3.194,3.194h10.773c5.49,0,9.957,4.468,9.957,9.958c0,5.491-4.467,9.958-9.957,9.958h-10.773
		c-1.766,0-3.194,1.431-3.194,3.194c0,1.763,1.43,3.193,3.194,3.193h5.387c5.49,0,9.958,4.467,9.958,9.957
		c0,5.491-4.468,9.959-9.958,9.959h-5.387c-1.766,0-3.194,1.43-3.194,3.192c0,1.765,1.43,3.195,3.194,3.195
		c5.49,0,9.957,4.467,9.957,9.956c0,5.492-4.467,9.959-9.957,9.959H86.951c-1.765,0-3.194,1.431-3.194,3.193
		c0,1.764,1.43,3.195,3.194,3.195h78.865c9.013,0,16.346-7.332,16.346-16.346c0-4.368-1.723-8.342-4.523-11.277
		c5.822-2.504,9.91-8.297,9.91-15.025c0-4.369-1.723-8.344-4.523-11.277c5.822-2.504,9.91-8.297,9.91-15.026
		c0-4.368-1.723-8.342-4.523-11.276C194.234,117.266,198.322,111.473,198.322,104.743z M70.981,193.611H52.038V94.785h18.943
		V193.611z"/>
	<path fill="#FFBD44" d="M156.234,184.03v-79.663c0-1.764-1.43-3.193-3.194-3.193s-3.194,1.43-3.194,3.193v79.663
		c0,1.764,1.43,3.194,3.194,3.194S156.234,185.794,156.234,184.03z"/>
</g>
</svg>
