<?xml version="1.0" encoding="utf-8"?>
<!-- Generator: Adobe Illustrator 16.0.0, SVG Export Plug-In . SVG Version: 6.00 Build 0)  -->
<!DOCTYPE svg PUBLIC "-//W3C//DTD SVG 1.1//EN" "http://www.w3.org/Graphics/SVG/1.1/DTD/svg11.dtd">
<svg version="1.1" id="Layer_1" xmlns="http://www.w3.org/2000/svg" xmlns:xlink="http://www.w3.org/1999/xlink" x="0px" y="0px"
	 width="144.7px" height="156.4px" viewBox="0 0 144.7 156.4" style="enable-background:new 0 0 144.7 156.4;" xml:space="preserve"
	>
<style type="text/css">
<![CDATA[
	.st0{fill:#29ABE2;}
	.st1{fill:#999999;}
]]>
</style>
<g>
	<g>
		<path class="st1" d="M73.4,155L21.3,58c0,0,1.5-1.5,4-3.5c2.3-1.9,5-3.8,5-3.8l49.2,90.8L73.4,155z"/>
	</g>
</g>
<g>
	<g>
		<path class="st1" d="M73.4,155L72,132.8l0.2-0.3L124,32.9c0,0,2.9,0.4,5.7,1.1c3.6,0.9,5.7,2,5.7,2L73.4,155z"/>
	</g>
</g>
<path class="st0" d="M141.7,23.9C100.1,9.7,50.9,16.8,15.2,46.7L1.9,22.4C44.5-6,101.7-5.9,143,21.3L141.7,23.9z"/>
</svg>
