<?xml version="1.0" encoding="utf-8"?>
<!-- Generator: Adobe Illustrator 16.0.0, SVG Export Plug-In . SVG Version: 6.00 Build 0)  -->
<!DOCTYPE svg PUBLIC "-//W3C//DTD SVG 1.1//EN" "http://www.w3.org/Graphics/SVG/1.1/DTD/svg11.dtd">
<svg version="1.1" id="Layer_1" xmlns="http://www.w3.org/2000/svg" xmlns:xlink="http://www.w3.org/1999/xlink" x="0px" y="0px"
	 width="649px" height="55.3px" viewBox="0 0 649 55.3" enable-background="new 0 0 649 55.3" xml:space="preserve">
<g>
	<path fill="#FFFFFF" d="M35.2,39.3L35.2,39.3v0.6c-2.7,1.9-7.3,3.8-13.4,3.8C9.6,43.8,1,36.2,1,23.6C1,11.3,10,3.3,21.9,3.3
		c3.7,0,7.8,0.6,11.5,2.5v7.5c-4.2-2.5-8.2-3.2-11.4-3.2c-7.9,0-13.1,5.3-13.1,13.5c0,8.3,5,13.4,13.2,13.4c2.2,0,4.1-0.4,5.9-1
		v-9.3h-7.2v-6.3h14.5V39.3z"/>
	<path fill="#FFFFFF" d="M66.4,41.7c-2.2,1.3-6.1,1.9-8.9,1.9c-9.6,0-15.2-6.4-15.2-15c0-9.7,6.1-15.1,13.5-15.1
		c7.5,0,12.5,4.5,12.5,13.7c0,1.1-0.2,3.1-0.4,4.2H49.3c1,4.3,4.5,6.6,9.2,6.6c3.2,0,5.9-0.9,7.9-2.3V41.7z M61.6,25.2
		c-0.2-3.6-1.9-6.3-5.7-6.3c-3.1,0-6,2.3-6.7,7.2h12.4V25.2z"/>
	<path fill="#FFFFFF" d="M82.9,19c1.2-3.3,3.7-5.5,7.5-5.5c0.6,0,1.2,0,2,0.2v6.8c-1-0.5-2-0.6-3-0.6c-3.9,0-6.5,3.6-6.5,8.2v15.3
		h-7.1l0.1-29.6h7V19z"/>
	<path fill="#FFFFFF" d="M104.6,19c1.2-3.3,3.7-5.5,7.5-5.5c0.6,0,1.2,0,2,0.2v6.8c-1-0.5-2-0.6-3-0.6c-3.9,0-6.5,3.6-6.5,8.2v15.3
		h-7.1l0.1-29.6h7V19z"/>
	<path fill="#FFFFFF" d="M115.9,13.8h7.8l3.4,9.4c3.5,9.4,3.9,11.5,3.9,11.5s0.6-2,3.7-11.5l3.1-9.4h7.3l-10.7,28.7
		c-3.2,8.5-7.8,11.8-13.5,11.8c-1.2,0-1.9-0.1-2.9-0.3v-5.8c0.7,0.2,1.3,0.2,2,0.2c3.6,0,6-1.9,7.5-5.8L115.9,13.8z"/>
	<path fill="#FFFFFF" d="M197.5,4v39.3h-7.4V26.8h-16.1v16.5h-7.3V4h7.3v16.4h16.1V4H197.5z"/>
	<path fill="#FFFFFF" d="M207.3,15.3c1.8-1.1,5.5-2,9.6-2c8.2,0,12,3.7,12,11.2v18.9h-6.9v-3.6c-0.9,1.7-3.1,3.8-7.7,3.8
		c-5.8,0-9.2-3.8-9.2-8.6c0-5.5,4.2-9,12.2-9h4.3v-1.8c0-3.1-1.3-5-5.7-5c-3.2,0-6.5,1.2-8.7,2.6V15.3z M218,30.6
		c-3.8,0-5.7,1.8-5.7,4c0,2.3,1.4,3.7,4.3,3.7c3.1,0,5-2,5-5v-2.8H218z"/>
	<path fill="#FFFFFF" d="M237.6,2.1h7v41.2h-7V2.1z"/>
	<path fill="#FFFFFF" d="M271.3,20.9c-1.7-1-4.5-1.7-7.3-1.7c-2.4,0-3.8,1.2-3.8,2.8c0,2.3,3,3.2,6.1,4.7c3.3,1.6,6.7,3.8,6.7,8.2
		c0,5.7-4.4,8.8-10.9,8.8c-3.7,0-7-0.8-8.9-1.8v-6.4c2.1,1.4,5.2,2.6,8.5,2.6c2.6,0,4.1-1,4.1-2.7c0-2.3-2.9-3.3-6.2-4.7
		c-3.2-1.5-6.5-3.7-6.5-8.4c0-5.7,4.9-8.7,10.8-8.7c2.9,0,5.7,0.5,7.5,1.3V20.9z"/>
	<path fill="#FFFFFF" d="M288.2,34c0,2.5,1.5,3.8,3.7,3.8c1.3,0,2.9-0.5,4.1-1.2v6c-1.5,0.7-3.8,1-5.2,1c-6.5,0-9.6-3.4-9.6-9.7V19
		h-4.4v-5.2h4.4V6.6h7v7.1h7.3V19h-7.3V34z"/>
	<path fill="#FFFFFF" d="M309.9,19c1.2-3.3,3.7-5.5,7.5-5.5c0.6,0,1.2,0,2,0.2v6.8c-1-0.5-2-0.6-3-0.6c-3.9,0-6.5,3.6-6.5,8.2v15.3
		h-7.1l0.1-29.6h7V19z"/>
	<path fill="#FFFFFF" d="M323.1,28.9c0-8.8,5.5-15.6,14.2-15.6c9.4,0,14.3,6.8,14.3,15.2c0,8.6-5,15.3-14.3,15.3
		S323.1,37.2,323.1,28.9z M330.4,28.6c0,5.1,2.3,9.6,6.9,9.6c4.8,0,6.9-4.3,6.9-9.5c0-5.2-1.9-9.7-7-9.7
		C332.6,19,330.4,23.4,330.4,28.6z"/>
	<path fill="#FFFFFF" d="M365.8,18.4c1.6-3.1,4.5-5,8.3-5c4.3,0,7.2,2,8.4,5.6c1.6-3.6,4.8-5.6,8.8-5.6c6,0,9.4,3.8,9.4,10.4v19.5
		h-7.1V25.2c0-3.7-1.5-5.9-4.5-5.9c-2.4,0-5.8,1.9-5.8,8.2v15.9h-7.1V25.2c0-3.7-1.5-5.9-4.5-5.9c-2.5,0-5.9,1.9-5.9,8.2v15.9h-7
		V13.8h7V18.4z"/>
	<path fill="#FFFFFF" d="M443.5,9.4c-1.8-1.2-5.2-2.2-8.1-2.2c-5.2,0-8.6,2.7-8.6,6.7c0,4.4,4.1,6.2,8.5,8.1
		c5,2.2,10.4,4.5,10.4,11.1c0,7.1-5.5,10.6-12.2,10.6c-3.7,0-7.5-0.9-10.3-2.6v-4c2.3,1.7,6.2,3.1,10.1,3.1c5.4,0,8.7-2.4,8.7-7
		c0-3.8-3.1-5.6-6.8-7.2c-5.5-2.4-12.2-4.5-12.2-11.8c0-6.9,5.8-10.5,12.2-10.5c2.7,0,5.9,0.5,8.2,1.7V9.4z"/>
	<path fill="#FFFFFF" d="M476.3,41.9c-2.2,1.1-5.7,1.7-8.2,1.7c-8.7,0-14.8-5.9-14.8-14.9c0-9.6,5.4-15.3,13-15.3
		c7.1,0,11.8,4.8,11.8,13.6c0,0.6-0.1,2.3-0.2,3.1h-20.9c0.5,6.6,4.8,10.1,11.3,10.1c2.4,0,5.9-0.6,8-2V41.9z M474.5,25.5
		c0-5.4-3.3-8.8-8.3-8.8c-4.8,0-8.6,3.4-9.2,10.1h17.4V25.5z"/>
	<path fill="#FFFFFF" d="M490.1,18.6c1.7-3.6,4.7-5.3,8.3-5.3c5,0,7.8,2.3,8.7,5.8c1.9-4,5.1-5.8,8.7-5.8c6.6,0,9.2,4.1,9.2,9.4
		v20.6h-3.6V23.8c0-4.6-1.9-7.1-6.2-7.1c-3.7,0-7.8,3.6-7.8,10.3v16.3h-3.6V23.8c0-4.6-1.9-7.1-6.2-7.1c-3.7,0-7.8,3.6-7.8,10.3
		v16.3h-3.6V13.8h3.6V18.6z"/>
	<path fill="#FFFFFF" d="M536.8,1.8c1.4,0,2.5,1.1,2.5,2.5c0,1.4-1.1,2.4-2.5,2.4s-2.4-1-2.4-2.4C534.3,2.9,535.4,1.8,536.8,1.8z
		 M535,13.8h3.6v29.6H535V13.8z"/>
	<path fill="#FFFFFF" d="M552.4,18.8c1.9-3.8,5.2-5.5,9.4-5.5c5.8,0,9.4,3.9,9.4,9.4v20.6h-3.6V23.8c0-4.7-2.7-7.1-6.4-7.1
		c-4.5,0-8.9,3.6-8.9,10.3v16.3h-3.6V13.8h3.6V18.8z"/>
	<path fill="#FFFFFF" d="M581.5,15.3c2-1.2,5.4-2,8.3-2c7.8,0,10.8,4.3,10.8,11.4v18.7h-3.6v-3.4c-1,1.5-3.5,3.7-8.5,3.7
		c-5.5,0-9.3-3.6-9.3-8.6c0-5.8,4.9-9,12-9h5.8v-1.3c0-5-1.8-8-7.3-8c-2.7,0-6.1,1-8.3,2.5V15.3z M591.4,29.3
		c-5.9,0-8.2,2.7-8.2,5.6c0,3.1,2,5.5,6.3,5.5c4.8,0,7.7-3,7.7-6.8v-4.3H591.4z"/>
	<path fill="#FFFFFF" d="M613.9,18.8c1.5-3.2,4-5.4,8.3-5.4c0.5,0,0.9,0.1,1.5,0.1v3.6c-0.8-0.2-1.5-0.4-2.3-0.4
		c-4.4,0-7.4,5.2-7.4,10v16.5h-3.6V13.8h3.6V18.8z"/>
	<path fill="#FFFFFF" d="M645.3,18.4c-1.6-0.9-4.5-1.6-7.4-1.6c-3.4,0-5.5,1.8-5.5,4.3c0,3.3,3,4.4,6.2,5.8c4.4,1.8,8.5,4,8.5,8.9
		c0,4.8-3.6,7.9-9.5,7.9c-3.6,0-6.9-0.8-8.6-1.7v-3.7c2.6,1.5,5.7,2.2,8.4,2.2c4.1,0,6.1-1.9,6.1-4.4c0-3.3-2.6-4.7-6.9-6.4
		c-3.7-1.5-7.8-3.6-7.8-8.4c0-4.9,4.1-7.8,9.2-7.8c3.5,0,6.1,0.7,7.3,1.3V18.4z"/>
</g>
</svg>
