<?xml version="1.0" encoding="utf-8"?>
<!-- Generator: Adobe Illustrator 16.0.0, SVG Export Plug-In . SVG Version: 6.00 Build 0)  -->
<!DOCTYPE svg PUBLIC "-//W3C//DTD SVG 1.1//EN" "http://www.w3.org/Graphics/SVG/1.1/DTD/svg11.dtd">
<svg version="1.1" id="Layer_1" xmlns="http://www.w3.org/2000/svg" xmlns:xlink="http://www.w3.org/1999/xlink" x="0px" y="0px"
	 width="375px" height="244.7px" viewBox="0 0 375 244.7" style="enable-background:new 0 0 375 244.7;" xml:space="preserve">
<style type="text/css">
<![CDATA[
	.st0{fill:#FFFFFF;}
]]>
</style>
<g>
	<path class="st0" d="M5.4,123.2l43.2-15v116.2l-43.2,15V123.2z M23.5,164.6l6.3-2.1v-27.3l-6.3,2.1V164.6z M23.8,212.5l6-2.1V183
		l-6,2.1V212.5z"/>
	<path class="st0" d="M79.5,179.5l-6.2,2.1v34.2l-18.5,6.4V106.1l43.2-15v116.2l-18.5,6.4V179.5z M73,161.1l6.2-2.1v-41l-6.2,2.1
		V161.1z"/>
	<path class="st0" d="M103.6,88.9l43.8-15V190l-43.8,15V88.9z M128.8,176v-75.2l-6.2,2.1v75.2L128.8,176z"/>
	<path class="st0" d="M153.6,71.7l43-15V125l-24.4,8.6v47.8l-18.5,6.4L153.6,71.7L153.6,71.7z M171.7,113.1l6.2-2.1V83.7l-6.2,2.1
		V113.1z"/>
	<path class="st0" d="M202.9,54.5l18.5-6.4v116.1l-18.5,6.5V54.5z"/>
	<path class="st0" d="M252.3,85.2V37.4l18.5-6.4v54.7L258.2,90v6.7l12.6-4.3v54.7l-18.5,6.4v-47.8l-6.2,2.1v47.8l-18.5,6.4v-54.6
		l12.1-4.3v-6.8l-12.1,4.3V45.9l18.5-6.4v47.8L252.3,85.2z"/>
	<path class="st0" d="M301.6,40.7l-6.2,2.1v27.3l24.8-8.6V82l-24.8,8.6v27.3l6.2-2.1V95.3l18.6-6.4v41l-43.2,15V28.7l43.2-15v41
		l-18.6,6.4V40.7z"/>
	<path class="st0" d="M326.4,11.6l18.4-6.4v95.7l6.2-2.1V64.6l18.6-6.4v54.5l-43.2,15V11.6z"/>
</g>
</svg>
