<?xml version="1.0" encoding="utf-8"?>
<!-- Generator: Adobe Illustrator 16.0.0, SVG Export Plug-In . SVG Version: 6.00 Build 0)  -->
<!DOCTYPE svg PUBLIC "-//W3C//DTD SVG 1.1//EN" "http://www.w3.org/Graphics/SVG/1.1/DTD/svg11.dtd">
<svg version="1.1" id="Layer_1" xmlns="http://www.w3.org/2000/svg" xmlns:xlink="http://www.w3.org/1999/xlink" x="0px" y="0px"
	 width="50px" height="50px" viewBox="0 0 50 50" enable-background="new 0 0 50 50" xml:space="preserve">
<g opacity="0.1">
	<polygon points="5.7,0.7 5.7,4 5.7,4.9 4.9,4.9 0.7,4.9 0.7,43.9 4.8,43.9 4.9,43.9 5.7,43.9 5.7,44.5 5.7,44.7 5.7,47.9 
		48.8,47.9 48.8,44.5 48.8,40.3 41.5,40.3 41.5,44.5 37.2,44.5 37.2,40.3 33,40.3 33,44.5 24.8,44.5 24.8,40.3 33,40.3 33,32 
		24.8,32 24.8,27.8 20.6,27.8 20.6,32 24.8,32 24.8,40.3 20.6,40.3 20.6,44.5 9.1,44.5 9.1,40.3 4.9,40.3 4.9,8.3 9.1,8.3 9.1,40.3 
		13.3,40.3 13.3,27.8 20.6,27.8 20.6,20.7 13.3,20.7 13.3,8.3 9.2,8.3 9.2,4 20.6,4 20.6,8.3 24.8,8.3 24.8,16.5 20.6,16.5 
		20.6,20.7 24.8,20.7 24.8,16.5 33,16.5 33,8.3 24.8,8.3 24.8,4 33,4 33,8.3 37.2,8.3 37.2,4 41.5,4 41.5,8.3 48.8,8.3 48.8,4 
		48.8,0.7 	"/>
	<rect x="33" y="27.8" width="4.2" height="4.2"/>
	<rect x="33" y="16.5" width="4.2" height="4.2"/>
	<rect x="37.2" y="20.7" width="11.6" height="7"/>
</g>
</svg>
