<?xml version="1.0" encoding="utf-8"?>
<!-- Generator: Adobe Illustrator 16.0.0, SVG Export Plug-In . SVG Version: 6.00 Build 0)  -->
<!DOCTYPE svg PUBLIC "-//W3C//DTD SVG 1.1//EN" "http://www.w3.org/Graphics/SVG/1.1/DTD/svg11.dtd">
<svg version="1.1" id="Layer_1" xmlns="http://www.w3.org/2000/svg" xmlns:xlink="http://www.w3.org/1999/xlink" x="0px" y="0px"
	 width="75px" height="100px" viewBox="0 0 75 100" enable-background="new 0 0 75 100" xml:space="preserve">
<path fill="#FFFFFF" d="M45.031,52.73l-9.672,0.126c-3.481,0.046-5.944-0.69-5.96-1.979c-0.011-0.898,0.627-1.42,1.386-2.334
	l7.223-0.094c14.576-0.189,27.235-8.07,27.052-20.792c-0.051-3.863-2.292-7.303-3.337-8.062c3.108,0.986,7.601-0.738,10.027-2.058
	L65.465,2.061C62.54,4.544,58.824,6.52,54.053,6.581c-5.931,0.078-8.811-2.709-20.031-2.562C15.451,4.261,3.71,13.158,3.906,27.167
	c0.112,7.845,3.291,13.461,9.783,16.713c-5.511,2.387-8.144,7.821-8.079,12.454c0.12,8.356,6.766,12.771,17.599,12.631l11.733-0.153
	c9.543-0.124,12.14,0.739,12.206,5.494c0.059,3.856-3.898,7.252-11.763,7.354c-7.481,0.098-11.245-1.648-11.3-5.513
	c-0.019-1.158-0.041-2.699,0.068-3.981L4.036,72.429c-0.483,2.323-0.824,5.793-0.781,8.623c0.125,9.002,8.762,17.373,30.685,17.089
	c24.893-0.328,35.952-11.53,35.74-26.567C69.512,59.742,60.769,52.523,45.031,52.73z M16.878,28.092l1.65-1.076l-1.5-5.172
	l5.165,0.843l1.401-2.185l5.29,4.127l-2.039-9.641l3.513,1.784l3.474-6.245l3.713,6.099l3.567-1.822l-1.682,9.688l5.096-4.477
	l1.692,2.501l4.904-1.182l-1.439,5.274l2.009,1.237l-8.709,6.487l1.069,2.927l-9.131-0.784l0.217,3.958l-1.507,0.091l0.105-4.035
	l-8.951,0.956l0.588-2.948L16.878,28.092z"/>
</svg>
