<?xml version="1.0" encoding="utf-8"?>
<!-- Generator: Adobe Illustrator 16.0.0, SVG Export Plug-In . SVG Version: 6.00 Build 0)  -->
<!DOCTYPE svg PUBLIC "-//W3C//DTD SVG 1.1//EN" "http://www.w3.org/Graphics/SVG/1.1/DTD/svg11.dtd">
<svg version="1.1" id="Layer_1" xmlns="http://www.w3.org/2000/svg" xmlns:xlink="http://www.w3.org/1999/xlink" x="0px" y="0px"
	 width="150.753px" height="172.859px" viewBox="0 0 150.753 172.859" enable-background="new 0 0 150.753 172.859"
	 xml:space="preserve">
<polyline fill="#D1BC7D" points="45.048,132.098 61.308,122.282 47.611,135.826 "/>
<polygon opacity="0.2" fill="#D1BC7D" points="37.765,35.71 135.272,54.193 135.272,69.694 108.568,61.98 106.796,57.138 
	107.046,55.415 104.639,48.387 102.171,57.75 102.57,60.247 36.678,41.212 "/>
<polygon opacity="0.2" fill="#D1BC7D" points="35.439,43.581 100.809,70.769 100.921,73.969 102.546,73.969 103.341,76.875 
	108.046,73.969 134.125,84.625 131.921,90.931 127.671,90.931 111.263,79.778 107.796,76.375 97.76,83.101 70.796,62.991 63.627,69 
	31.786,47.79 "/>
<polygon opacity="0.2" fill="#D1BC7D" points="31.873,50.723 56.379,76.409 51.546,82.75 42.296,76.5 38.776,79.384 26.48,54.106 
	"/>
<polygon opacity="0.2" fill="#D1BC7D" points="39.703,33.724 134.125,45.076 135.153,34.22 "/>
<polygon opacity="0.2" fill="#D1BC7D" points="23.824,55.415 30.306,85.248 19.125,90.931 18.488,56.429 "/>
<polyline fill="#D1BC7D" points="107.453,131.936 77.296,113 77.296,125.9 91.296,126 91.296,146 "/>
<path fill="#D1BC7D" d="M18.488,56.429h-1.491V33.724h22.706v1.49C39.703,46.912,30.186,56.429,18.488,56.429z M19.978,36.705
	v16.682c8.868-0.722,15.962-7.814,16.684-16.682H19.978z"/>
<g>
	<path fill="#D1BC7D" d="M46.087,35.79l-1.489-0.08h-1.451l-0.038-0.079c0.025-0.468,0.038-0.938,0.038-1.411v-1.491h2.981v1.491
		C46.128,34.746,46.115,35.27,46.087,35.79z"/>
	<path fill="#D1BC7D" d="M22.329,62.397l-0.495-2.939c0.945-0.159,1.887-0.373,2.801-0.636l0.825,2.866
		C24.437,61.981,23.384,62.222,22.329,62.397z M28.488,60.629l-1.142-2.755c0.88-0.365,1.75-0.785,2.585-1.246l1.443,2.607
		C30.443,59.752,29.472,60.221,28.488,60.629z M34.089,57.528l-1.729-2.432c0.779-0.553,1.535-1.156,2.246-1.793l1.988,2.223
		C35.8,56.237,34.958,56.91,34.089,57.528z M38.865,53.259l-2.225-1.986c0.639-0.715,1.242-1.471,1.794-2.247l2.431,1.728
		C40.25,51.618,39.576,52.461,38.865,53.259z M42.574,48.036l-2.611-1.441c0.465-0.841,0.885-1.713,1.248-2.59l2.754,1.141
		C43.56,46.126,43.09,47.097,42.574,48.036z M45.023,42.115l-2.865-0.825c0.264-0.914,0.477-1.857,0.635-2.801l2.941,0.492
		C45.557,40.036,45.318,41.091,45.023,42.115z"/>
	<path fill="#D1BC7D" d="M17.553,62.796h-1.491v-2.98l1.491-0.002c0.474,0,0.944-0.012,1.411-0.038l0.002,0.04h0.078v1.449
		l0.08,1.488C18.604,62.782,18.082,62.796,17.553,62.796z"/>
	<path fill="#D1BC7D" d="M19.044,57.138h-2.982V54.46h2.982V57.138z M19.044,51.781h-2.982v-2.679h2.982V51.781z M19.044,46.424
		h-2.982v-2.679h2.982V46.424z M19.044,41.067h-2.982V38.39h2.982V41.067z"/>
	<rect x="16.062" y="32.729" fill="#D1BC7D" width="2.982" height="2.981"/>
	<path fill="#D1BC7D" d="M40.44,35.71h-2.675v-2.981h2.675V35.71z M35.093,35.71h-2.674v-2.981h2.674V35.71z M29.745,35.71h-2.673
		v-2.981h2.673V35.71z M24.398,35.71h-2.674v-2.981h2.674V35.71z"/>
</g>
<g>
	<path fill-rule="evenodd" clip-rule="evenodd" fill="#D1BC7D" d="M119.353,85.798l-2.357,0.354l-0.295-1.736l-2.459-0.447
		l0.84-0.508l0.952-3.008l1.589-5.928l-1.794-0.029l1.767-4.979l2.59,4.689l-1.316,0.559l1.553,2.92l-1.147-0.156l1.474,6.449
		l0.529,2.492L119.353,85.798z M118.013,68.253l-1.399-0.365l0.503-0.84l0.51-1.98l0.719,2.701l0.436,0.604L118.013,68.253z"/>
	<path fill="#D1BC7D" d="M119.292,84.298 M117.605,59.188l-1.879,7.277l-1.41,2.363l1.777,0.463l-2.363,6.66l1.959,0.031
		l-1.077,4.018l-0.782,2.475l2.588,3.421l2.879,0.573l3.99,2.279l-1.085-5.105l-0.995-4.348l1.897,0.26l-2.155-4.055l1.34-0.568
		l-2.721-4.93l2.506,0.391l-2.357-3.273L117.605,59.188L117.605,59.188z"/>
</g>
<g opacity="0.8">
	<g>
		<rect x="65.296" y="129" fill="#D1BC7D" width="10" height="9.763"/>
	</g>
	<g>
		<rect x="78.296" y="129.001" fill="#D1BC7D" width="10" height="9.763"/>
	</g>
	<g>
		<polygon fill="#D1BC7D" points="75.296,151.323 65.296,146 65.296,142 75.296,142 		"/>
	</g>
	<g>
		<polygon fill="#D1BC7D" points="78.296,151.323 78.296,142 88.296,142 88.296,146.364 		"/>
	</g>
</g>
<path fill="#D1BC7D" d="M76.256,156.132l-0.914-0.361c-0.614-0.244-15.2-6.102-29.988-18.867
	c-19.717-17.024-29.852-38.004-29.852-61.119V31l4.794,0.216V76c0,48.719,48.618,71.536,55.96,74.761
	c7.336-3.232,56.246-26.773,56.246-75.43V31h4.794v44.547c0,23.115-10.421,44.332-30.139,61.356
	c-14.786,12.766-29.372,18.623-29.985,18.867L76.256,156.132z"/>
<path fill="#D1BC7D" d="M76.296,166.001l-0.549-0.217c-0.701-0.279-17.611-6.583-34.545-21.202
	C25.515,131.037,7.296,108.264,7.296,75V31.572h2.981V75c0,32.137,17.657,54.187,32.874,67.324
	c14.867,12.836,30.119,19.173,33.145,20.458c3.031-1.289,17.852-7.659,32.723-20.519c15.186-13.13,33.287-35.521,33.287-67.62
	V31.216h2.982v43.428c0,33.264-18.701,56.394-34.391,69.938c-16.932,14.619-33.352,20.923-34.051,21.202L76.296,166.001z"/>
<g>
	<rect x="7.296" y="29.237" fill="#D1BC7D" width="138" height="7.763"/>
</g>
<g>
	<rect x="7.296" y="18" fill="#D1BC7D" width="138" height="6"/>
</g>
<path fill-rule="evenodd" clip-rule="evenodd" fill="#006838" d="M61.484,75.356"/>
<path fill-rule="evenodd" clip-rule="evenodd" fill="#D1BC7D" d="M110.787,130.359 M110.787,130.359l-34.778-20.491l-34.331,20.491
	c0,0-3.035-4.27-4.903-6.018c-10.416-9.747-16.521-34.815-16.521-34.815l5.594-5.965l8.447-1.49l7.637-8.883l4.788,3.748l5.499,3.02
	l6.841-8.818c0,0,6.917-6.623,10.476-10.559c0.377-0.416,1.205-1.589,1.205-1.589l8.281,6.682l13.991,6.879l4.328,4.521l3.887,0.391
	l7.28-4.832l2.645,2.299l5.637,6.148l6.131,0.496l4.803,7.123l6.402,0.994l-10.14,24.156l-11.605,14.521L110.787,130.359z
	 M25.299,103.87l6.638-2.094l-4.382,5.219l8.895,6.549l7.951,1.576l7.726-4.559l17.798-8.27l10.427-0.652l3.968-0.799l2.157-3.861
	l-7.597-4.166l-4.835-0.645l8.291-3.803l-6.702-8.531l-6.645,1.619l-5.843,3.221l2-2.318l4.369-10.121l1.796-4.158l-0.556-2.254
	l-2.211,1.305l-7.061,6.66L54.325,83.7l-6.107,5.564l-8.771,5.34l6.241-7.717l-1.252-4.812l-2.368-3.984
	c0,0-2.293,2.844-3.376,4.039c-1.085,1.199-3.366,3.479-3.366,3.479l-4.764,1.223l-3.634,1.617l-1.324,3.674l-3.94,6.696
	L25.299,103.87z M132.311,94.675l-9.616-3.623l-2.24-3.047l-3.479,0.127l-8.799-10.367l-7.124,6.459l5.467,5.633l13.584,4.818
	l8.283,10.588L132.311,94.675z M103.296,110h-11v6.237l11.045,6.752L103.296,110z"/>
<path fill="#D1BC7D" d="M142.296,19H10.081l0.018-6.179h132.198 M145.296,10h-138v12l138-0.554"/>
<path fill="#D1BC7D" d="M142.296,7h-4V4h4V7z M134.296,7h-4V4h4V7z M126.296,7h-4V4h4V7z M118.296,7h-4V4h4V7z M110.296,7h-4V4h4V7z
	 M102.296,7h-4V4h4V7z M94.296,7h-4V4h4V7z M86.296,7h-4V4h4V7z M78.296,7h-4V4h4V7z M70.296,7h-4V4h4V7z M62.296,7h-4V4h4V7z
	 M54.296,7h-4V4h4V7z M46.296,7h-4V4h4V7z M38.296,7h-4V4h4V7z M30.296,7h-4V4h4V7z M22.296,7h-4V4h4V7z M14.296,7h-4V4h4V7z"/>
<text transform="matrix(1 0 0 1 -149.103 -134.2446)" fill="#86754D" font-family="'Woodshop'" font-size="23.4909">UNIVERSITy</text>
<text transform="matrix(1 0 0 1 -149.0044 -111.7441)" fill="#86754D" font-family="'Woodshop'" font-size="25.229">HIGHLANDS</text>
<path fill="#D1BC7D" d="M104.104,43.581l-2.154,11.357l-2.456,4.666l2.332,0.311l-2.639,6.18l1.914,0.814l-2.408,8.447h2.884
	l0.497,3.193l8.908-4.58l1.703-1.209l-2.582-4.604l2.582-1.285l-4.641-8.842l2.543-0.663l-2.453-3.539L104.104,43.581
	L104.104,43.581z M107.453,66.204l-1.031,0.793l0.068,6.973l-2.508,1.664l-0.21-3.668l-1.45,0.795l1.742-7.773l-1.158-0.27
	l1.096-6.616l-0.893-0.352l1.438-2.062l0.341-3.184L107.453,66.204z"/>
<rect x="186.259" y="-60.878" fill="#FFFFFF" width="186.433" height="247.739"/>
<path fill="#86754D" d="M62.222,68.063"/>
<text transform="matrix(0.9965 0 0 1 -324.7031 -136)" fill="#86754D" font-family="'Gotham-Bold'" font-size="19.7785">UNIVERSITY</text>
<text transform="matrix(1.041 0 0 1 -325.7036 -119)" fill="#86754D" font-family="'Gotham-Bold'" font-size="19.4827" letter-spacing="0.961">HIGHLANDS</text>
</svg>
