<?xml version="1.0" encoding="utf-8"?>
<!-- Generator: Adobe Illustrator 16.0.0, SVG Export Plug-In . SVG Version: 6.00 Build 0)  -->
<!DOCTYPE svg PUBLIC "-//W3C//DTD SVG 1.1//EN" "http://www.w3.org/Graphics/SVG/1.1/DTD/svg11.dtd">
<svg version="1.1" id="Layer_1" xmlns="http://www.w3.org/2000/svg" xmlns:xlink="http://www.w3.org/1999/xlink" x="0px" y="0px"
	 width="285.296px" height="327.131px" viewBox="0 0 285.296 327.131" enable-background="new 0 0 285.296 327.131"
	 xml:space="preserve">
<polyline fill="#CBB372" points="80.469,252.287 111.986,233.263 85.436,259.515 "/>
<polygon opacity="0.2" fill="#CBB372" points="66.353,65.462 255.347,101.288 255.347,131.333 203.587,116.382 200.154,106.995 
	200.638,103.656 195.972,90.033 191.189,108.182 191.961,113.021 64.246,76.127 "/>
<polygon opacity="0.2" fill="#CBB372" points="61.844,80.719 188.549,133.415 188.766,139.618 191.917,139.618 193.457,145.251 
	202.577,139.618 253.123,160.272 248.853,172.495 240.615,172.495 208.812,150.879 202.092,144.282 182.639,157.318 
	130.376,118.341 116.481,129.987 54.763,88.877 "/>
<polygon opacity="0.2" fill="#CBB372" points="54.932,94.561 102.431,144.349 93.065,156.639 75.136,144.524 68.313,150.114 
	44.479,101.119 "/>
<polygon opacity="0.2" fill="#CBB372" points="70.108,61.612 253.123,83.616 255.116,62.574 "/>
<polygon opacity="0.2" fill="#CBB372" points="39.331,103.656 51.896,161.48 30.223,172.495 28.988,105.621 "/>
<polyline fill="#CBB372" points="201.426,251.973 142.975,215.271 142.975,240.275 170.111,240.469 170.111,279.233 "/>
<path fill="#CBB372" d="M28.988,105.621h-2.89V61.612h44.01v2.889C70.108,87.175,51.663,105.621,28.988,105.621z M31.877,67.392
	v32.333c17.188-1.398,30.938-15.146,32.337-32.333H31.877z"/>
<g>
	<path fill="#CBB372" d="M82.484,65.617l-2.887-0.155h-2.813l-0.074-0.153c0.049-0.906,0.074-1.818,0.074-2.734v-2.891h5.779v2.891
		C82.563,63.594,82.537,64.608,82.484,65.617z"/>
	<path fill="#CBB372" d="M36.433,117.189l-0.959-5.697c1.833-0.309,3.657-0.723,5.429-1.232l1.6,5.556
		C40.52,116.384,38.479,116.849,36.433,117.189z M48.371,113.763l-2.213-5.341c1.706-0.708,3.392-1.521,5.01-2.415l2.798,5.054
		C52.161,112.062,50.279,112.971,48.371,113.763z M59.229,107.752l-3.351-4.713c1.511-1.071,2.976-2.241,4.354-3.476l3.854,4.309
		C62.544,105.25,60.913,106.554,59.229,107.752z M68.484,99.477l-4.312-3.85c1.238-1.386,2.408-2.851,3.477-4.355l4.711,3.348
		C71.168,96.297,69.862,97.93,68.484,99.477z M75.673,89.354l-5.062-2.794c0.901-1.63,1.715-3.319,2.419-5.02l5.338,2.211
		C77.585,85.651,76.675,87.533,75.673,89.354z M80.42,77.878l-5.554-1.6c0.511-1.772,0.924-3.601,1.23-5.429l5.701,0.954
		C81.456,73.848,80.992,75.892,80.42,77.878z"/>
	<path fill="#CBB372" d="M27.177,117.962h-2.89v-5.776l2.89-0.004c0.918,0,1.831-0.023,2.735-0.074l0.004,0.078h0.151v2.809
		l0.155,2.885C29.213,117.936,28.201,117.962,27.177,117.962z"/>
	<path fill="#CBB372" d="M30.067,106.995h-5.781v-5.19h5.781V106.995z M30.067,96.612h-5.781v-5.191h5.781V96.612z M30.067,86.229
		h-5.781v-5.191h5.781V86.229z M30.067,75.847h-5.781v-5.19h5.781V75.847z"/>
	<rect x="24.287" y="59.684" fill="#CBB372" width="5.781" height="5.778"/>
	<path fill="#CBB372" d="M71.538,65.462h-5.185v-5.778h5.185V65.462z M61.174,65.462h-5.183v-5.778h5.183V65.462z M50.807,65.462
		h-5.181v-5.778h5.181V65.462z M40.444,65.462h-5.183v-5.778h5.183V65.462z"/>
</g>
<g>
	<path fill-rule="evenodd" clip-rule="evenodd" fill="#CBB372" d="M224.492,162.546l-4.569,0.686l-0.571-3.366l-4.767-0.866
		l1.628-0.984l1.846-5.83l3.08-11.489l-3.478-0.057l3.424-9.65l5.021,9.09l-2.552,1.083l3.01,5.659l-2.225-0.303l2.856,12.5
		l1.026,4.831L224.492,162.546z M221.895,128.539l-2.713-0.708l0.976-1.628l0.987-3.838l1.394,5.235l0.844,1.17L221.895,128.539z"/>
	<path fill="#CBB372" d="M224.375,159.639 M221.104,110.97l-3.642,14.105l-2.733,4.581l3.444,0.897l-4.58,12.909l3.797,0.061
		l-2.088,7.787l-1.517,4.796l5.017,6.631l5.58,1.111l7.734,4.418l-2.104-9.896l-1.929-8.427l3.678,0.504l-4.178-7.859l2.598-1.102
		l-5.273-9.555l4.856,0.757l-4.569-6.345L221.104,110.97L221.104,110.97z"/>
</g>
<g opacity="0.8">
	<g>
		<rect x="119.716" y="246.283" fill="#CBB372" width="19.382" height="18.923"/>
	</g>
	<g>
		<polygon fill="#CBB372" points="164.296,265.21 144.914,265.206 144.914,246.283 164.296,246.287 		"/>
	</g>
	<g>
		<polygon fill="#CBB372" points="139.098,289.552 119.716,279.233 119.716,271.48 139.098,271.48 		"/>
	</g>
	<g>
		<polygon fill="#CBB372" points="144.914,289.552 144.914,271.48 164.296,271.48 164.296,279.939 		"/>
	</g>
</g>
<path fill="#CBB372" d="M140.959,298.872l-1.772-0.7c-1.19-0.474-29.462-11.827-58.125-36.57
	c-38.216-32.997-57.86-73.661-57.86-118.465V56.333l9.292,0.418v86.803c0,94.431,94.235,138.656,108.466,144.906
	c14.219-6.265,109.02-51.894,109.02-146.202V56.333h9.292v86.344c0,44.804-20.198,85.928-58.417,118.925
	c-28.659,24.743-56.931,36.097-58.119,36.57L140.959,298.872z"/>
<path fill="#CBB372" d="M141.037,318.001l-1.063-0.42c-1.359-0.542-34.136-12.76-66.958-41.096
	C42.609,250.231,7.296,206.091,7.296,141.617V57.442h5.779v84.175c0,62.289,34.225,105.027,63.719,130.492
	c28.817,24.879,58.378,37.162,64.243,39.652c5.875-2.498,34.602-14.845,63.426-39.77c29.434-25.449,64.519-68.849,64.519-131.066
	V56.751h5.781v84.174c0,64.474-36.248,109.306-66.658,135.56c-32.818,28.336-64.645,40.554-66,41.096L141.037,318.001z"/>
<g>
	<rect x="7.296" y="52.917" fill="#CBB372" width="267.48" height="15.046"/>
</g>
<g>
	<rect x="7.296" y="31.136" fill="#CBB372" width="267.48" height="11.629"/>
</g>
<path fill-rule="evenodd" clip-rule="evenodd" fill="#006838" d="M112.326,142.308"/>
<path fill-rule="evenodd" clip-rule="evenodd" fill="#CBB372" d="M207.888,248.918 M207.888,248.918l-67.41-39.718l-66.542,39.718
	c0,0-5.883-8.275-9.504-11.664c-20.189-18.892-32.021-67.481-32.021-67.481l10.842-11.562l16.373-2.888l14.802-17.218l9.281,7.265
	l10.658,5.853l13.26-17.092c0,0,13.407-12.837,20.305-20.467c0.73-0.805,2.335-3.08,2.335-3.08l16.052,12.95l27.118,13.334
	l8.39,8.764l7.533,0.757l14.111-9.365l5.126,4.455l10.925,11.918l11.884,0.961l9.309,13.807l12.409,1.927l-19.653,46.821
	l-22.494,28.145L207.888,248.918z M42.191,197.575l12.866-4.059l-8.493,10.115l17.24,12.693l15.411,3.055l14.975-8.835
	l34.497-16.029l20.21-1.264l7.69-1.549l4.182-7.484l-14.725-8.074l-9.372-1.25l16.07-7.37l-12.99-16.536l-12.879,3.139
	l-11.325,6.242l3.877-4.493l8.469-19.618l3.48-8.06l-1.077-4.368l-4.285,2.528l-13.686,12.909L98.45,158.48l-11.838,10.785
	l-17,10.35l12.097-14.957l-2.427-9.328l-4.59-7.723c0,0-4.444,5.513-6.543,7.829c-2.103,2.324-6.525,6.742-6.525,6.742l-9.233,2.37
	l-7.043,3.135l-2.567,7.12l-7.637,12.979L42.191,197.575z M249.608,179.752l-18.639-7.022l-4.342-5.905l-6.744,0.246l-17.055-20.095
	l-13.809,12.52l10.597,10.918l26.329,9.339L242,200.274L249.608,179.752z M193.37,209.456h-21.32v12.09l21.407,13.087
	L193.37,209.456z"/>
<path fill="#CBB372" d="M268.962,33.074H12.693l0.034-11.976h256.235 M274.777,15.629H7.296v23.259l267.48-1.074"/>
<path fill="#CBB372" d="M269.296,10h-8V4h8V10z M253.296,10h-8V4h8V10z M238.296,10h-8V4h8V10z M222.296,10h-8V4h8V10z M207.296,10
	h-8V4h8V10z M191.296,10h-8V4h8V10z M176.296,10h-8V4h8V10z M160.296,10h-8V4h8V10z M145.296,10h-8V4h8V10z M129.296,10h-8V4h8V10z
	 M114.296,10h-8V4h8V10z M98.296,10h-8V4h8V10z M83.296,10h-8V4h8V10z M67.296,10h-8V4h8V10z M52.296,10h-8V4h8V10z M36.296,10h-8V4
	h8V10z M21.296,10h-8V4h8V10z"/>
<text transform="matrix(1 0 0 1 -149.103 -134.2446)" fill="#86754D" font-family="'Woodshop'" font-size="23.4909">UNIVERSITy</text>
<text transform="matrix(1 0 0 1 -149.0044 -111.7441)" fill="#86754D" font-family="'Woodshop'" font-size="25.229">HIGHLANDS</text>
<path fill="#CBB372" d="M194.935,80.719l-4.176,22.014l-4.76,9.044l4.52,0.602l-5.114,11.979l3.71,1.578l-4.668,16.373h5.59
	l0.964,6.189l17.266-8.877l3.302-2.344l-5.005-8.923l5.005-2.49l-8.995-17.139l4.929-1.285l-4.755-6.859L194.935,80.719
	L194.935,80.719z M201.426,124.568l-1.999,1.537l0.132,13.515l-4.86,3.226l-0.407-7.109l-2.811,1.54l3.377-15.066l-2.245-0.522
	l2.124-12.824l-1.73-0.682l2.786-3.997l0.661-6.172L201.426,124.568z"/>
<path fill="#86754D" d="M113.757,128.172"/>
<text transform="matrix(0.9965 0 0 1 -324.7031 -136)" fill="#86754D" font-family="'Gotham-Bold'" font-size="19.7785">UNIVERSITY</text>
<text transform="matrix(1.041 0 0 1 -325.7036 -119)" fill="#86754D" font-family="'Gotham-Bold'" font-size="19.4827" letter-spacing="0.961">HIGHLANDS</text>
</svg>
