<?xml version="1.0" encoding="utf-8"?>
<!-- Generator: Adobe Illustrator 16.0.0, SVG Export Plug-In . SVG Version: 6.00 Build 0)  -->
<!DOCTYPE svg PUBLIC "-//W3C//DTD SVG 1.1//EN" "http://www.w3.org/Graphics/SVG/1.1/DTD/svg11.dtd">
<svg version="1.1" id="Layer_1" xmlns="http://www.w3.org/2000/svg" xmlns:xlink="http://www.w3.org/1999/xlink" x="0px" y="0px"
	 width="938px" height="127px" viewBox="179.45 159 938 127" enable-background="new 179.45 159 938 127" xml:space="preserve">
<g>
	<path fill="#FFFFFF" d="M233.3,275.7h-10.1v-87.4h-38.4v-9.2h87v9.2h-38.5V275.7L233.3,275.7z"/>
</g>
<g>
	<path fill="#FFFFFF" d="M307.1,275.4h-10.4v-97.3h10.4V275.4z"/>
</g>
<g>
	<path fill="#FFFFFF" d="M441,275.6h-10.1v-77.8L395.6,251.4H387L351.8,198v77.5h-10.1v-94.8l8.8-2.2l40.9,61.5l40.6-61.6l9,2.2
		V275.6L441,275.6z"/>
</g>
<g>
	<path fill="#FFFFFF" d="M551.7,275h-76.3v-95.7h76.3v9.2h-66.4V223h63.4v9.2h-63.4v33.3h66.4V275z"/>
</g>
<g>
	<path fill="#FFFFFF" d="M621.9,276.4c-9.301,0-40.301-1.601-46.4-22.301l-0.4-1.5l9.301-2.5l0.399,1.4c2,6.4,11,13.9,30.2,15.5
		c2.1,0.3,4.7,0.4,7,0.4c4.2,0,14.9-0.4,23.9-4.4c8-3.6,12.1-8.8,12.1-15.7c0-12.5-14.1-14.5-35.6-16.1
		c-21.101-1.6-44.9-3.4-44.9-25.7c0-18.7,22.6-24.7,29.6-26.1c4.5-0.8,9.101-1.2,13.301-1.2c13.5,0,37.1,2.5,43.8,19.6l0.6,1.4
		l-8.899,3.3l-0.5-1.4c-3.5-9.1-15.2-13.7-34.7-13.7c-0.5,0-1.101,0-1.601,0.1c-0.699,0-1.399,0.1-2,0.1
		c-17.6,1.2-26.399,8.3-28.5,14.1l-0.1,0.2c-0.5,1-0.8,2.4-0.8,3.8c0,12.6,14.2,14.7,35.899,16.4c20.9,1.7,44.601,3.5,44.601,25.2
		C667.8,268.7,644.1,276.4,621.9,276.4z"/>
</g>
<g>
	<path fill="#FFFFFF" d="M780.4,274.7L766.8,249.4h-62.6L690.6,274.7l-8.8-4.601l49.601-91.6h7.899l49.8,91.6L780.4,274.7z
		 M709.1,240.2H761.7l-26.2-48.9L709.1,240.2z"/>
</g>
<g>
	<path fill="#FFFFFF" d="M994.5,275H918v-95.7h76.5v9.2H928V223h63.4v9.2H928v33.3h66.6v9.5H994.5z"/>
</g>
<g>
	<path fill="#FFFFFF" d="M1066.1,275h-42v-95.7h42c14.601,0,26.801,5.2,35.5,15c7.601,8.7,11.801,20.3,11.801,32.8
		c0,12.5-4.2,24.1-11.801,32.8C1092.9,269.8,1080.6,275,1066.1,275z M1034.1,265.6h32c11.601,0,21.2-4.1,28-12
		c6-7,9.301-16.399,9.301-26.6c0-18.6-11.7-38.6-37.301-38.6h-32V265.6z"/>
</g>
<g>
	<g>
		<path fill="#FFFFFF" d="M841.1,280.1L802.2,207.6c0,0,1.1-1.1,3-2.6c1.7-1.4,3.8-2.9,3.8-2.9l36.8,67.9L841.1,280.1z"/>
	</g>
</g>
<g>
	<g>
		<path fill="#FFFFFF" d="M841.1,280.1l-1-16.5l0.101-0.199l38.7-74.5c0,0,2.199,0.3,4.3,0.8c2.7,0.7,4.2,1.5,4.2,1.5L841.1,280.1z"
			/>
	</g>
</g>
<path fill="#29ABE2" d="M892.1,182.1c-31.1-10.6-67.8-5.3-94.6,17.1l-9.9-18.2c31.801-21.2,74.601-21.2,105.5-0.9L892.1,182.1z"/>
</svg>
