<?xml version="1.0" encoding="utf-8"?>
<!-- Generator: Adobe Illustrator 16.0.0, SVG Export Plug-In . SVG Version: 6.00 Build 0)  -->
<!DOCTYPE svg PUBLIC "-//W3C//DTD SVG 1.1//EN" "http://www.w3.org/Graphics/SVG/1.1/DTD/svg11.dtd">
<svg version="1.1" id="Layer_1" xmlns="http://www.w3.org/2000/svg" xmlns:xlink="http://www.w3.org/1999/xlink" x="0px" y="0px"
	 width="334.148px" height="344.065px" viewBox="0 0 334.148 344.065" enable-background="new 0 0 334.148 344.065"
	 xml:space="preserve">
<polyline fill="#CBB372" points="456.469,263.781 487.986,244.757 461.436,271.009 "/>
<polygon opacity="0.2" fill="#CBB372" enable-background="new    " points="442.353,76.956 631.347,112.782 631.347,142.827 
	579.587,127.876 576.154,118.489 576.638,115.15 571.972,101.527 567.189,119.676 567.96,124.515 440.246,87.621 "/>
<polygon opacity="0.2" fill="#CBB372" enable-background="new    " points="437.844,92.213 564.548,144.909 564.766,151.112 
	567.917,151.112 569.457,156.745 578.578,151.112 629.123,171.767 624.853,183.989 616.615,183.989 584.812,162.373 
	578.091,155.776 558.639,168.812 506.376,129.835 492.481,141.481 430.763,100.371 "/>
<polygon opacity="0.2" fill="#CBB372" enable-background="new    " points="430.932,106.055 478.431,155.843 469.065,168.134 
	451.136,156.018 444.313,161.608 420.479,112.613 "/>
<polygon opacity="0.2" fill="#CBB372" enable-background="new    " points="446.108,73.106 629.123,95.11 631.117,74.068 "/>
<polygon opacity="0.2" fill="#CBB372" enable-background="new    " points="415.332,115.15 427.896,172.974 406.223,183.989 
	404.988,117.115 "/>
<polyline fill="#CBB372" points="577.425,263.468 518.975,226.765 518.975,251.769 546.111,251.963 546.111,290.728 "/>
<path fill="#CBB372" d="M404.988,117.115h-2.89V73.106h44.01v2.889C446.108,98.669,427.664,117.115,404.988,117.115z
	 M407.876,78.886v32.333c17.188-1.398,30.938-15.146,32.338-32.333H407.876z"/>
<g>
	<path fill="#CBB372" d="M458.484,77.111l-2.887-0.155h-2.812l-0.074-0.153c0.049-0.906,0.074-1.818,0.074-2.734v-2.891h5.778v2.891
		C458.563,75.088,458.537,76.102,458.484,77.111z"/>
	<path fill="#CBB372" d="M412.433,128.683l-0.959-5.697c1.833-0.309,3.656-0.723,5.429-1.232l1.601,5.556
		C416.52,127.878,414.479,128.343,412.433,128.683z M424.371,125.257l-2.213-5.341c1.706-0.708,3.393-1.521,5.01-2.415l2.799,5.054
		C428.162,123.556,426.279,124.465,424.371,125.257z M435.229,119.246l-3.351-4.713c1.511-1.071,2.976-2.241,4.354-3.476
		l3.854,4.309C438.544,116.744,436.914,118.048,435.229,119.246z M444.484,110.971l-4.312-3.85c1.238-1.386,2.408-2.851,3.478-4.355
		l4.711,3.348C447.167,107.791,445.862,109.424,444.484,110.971z M451.673,100.848l-5.062-2.794c0.901-1.63,1.715-3.319,2.419-5.02
		l5.339,2.211C453.585,97.145,452.675,99.027,451.673,100.848z M456.419,89.372l-5.553-1.6c0.51-1.772,0.924-3.601,1.229-5.429
		l5.7,0.954C457.457,85.342,456.992,87.386,456.419,89.372z"/>
	<path fill="#CBB372" d="M403.177,129.456h-2.891v-5.776l2.891-0.004c0.918,0,1.83-0.023,2.734-0.074l0.004,0.078h0.151v2.809
		l0.155,2.885C405.212,129.43,404.201,129.456,403.177,129.456z"/>
	<path fill="#CBB372" d="M406.067,118.489h-5.78v-5.19h5.78V118.489z M406.067,108.106h-5.78v-5.191h5.78V108.106z M406.067,97.723
		h-5.78v-5.191h5.78V97.723z M406.067,87.341h-5.78v-5.19h5.78V87.341z"/>
	<rect x="400.287" y="71.178" fill="#CBB372" width="5.781" height="5.778"/>
	<path fill="#CBB372" d="M447.539,76.956h-5.186v-5.778h5.186V76.956z M437.173,76.956h-5.182v-5.778h5.182V76.956z M426.807,76.956
		h-5.181v-5.778h5.181V76.956z M416.444,76.956h-5.183v-5.778h5.183V76.956z"/>
</g>
<g>
	<path fill="#CBB372" d="M600.492,174.04l-4.568,0.686l-0.571-3.365l-4.767-0.866l1.627-0.983l1.847-5.831l3.08-11.489l-3.478-0.057
		l3.424-9.65l5.021,9.09l-2.552,1.083l3.01,5.659l-2.225-0.303l2.855,12.5l1.026,4.832L600.492,174.04z M597.895,140.033
		l-2.713-0.708l0.976-1.628l0.987-3.838l1.394,5.235l0.844,1.17L597.895,140.033z"/>
	<path fill="#CBB372" d="M597.104,122.464l-3.642,14.105l-2.733,4.581l3.444,0.896l-4.58,12.909l3.797,0.061l-2.088,7.787
		l-1.518,4.796l5.018,6.631l5.58,1.111l7.734,4.418l-2.104-9.896l-1.929-8.427l3.678,0.504l-4.178-7.859l2.598-1.102l-5.273-9.555
		l4.856,0.757l-4.569-6.345L597.104,122.464L597.104,122.464z"/>
</g>
<g opacity="0.8">
	<g>
		<rect x="495.716" y="257.777" fill="#CBB372" width="19.382" height="18.923"/>
	</g>
	<g>
		<polygon fill="#CBB372" points="540.296,276.704 520.914,276.7 520.914,257.777 540.296,257.781 		"/>
	</g>
	<g>
		<polygon fill="#CBB372" points="515.098,301.046 495.716,290.728 495.716,282.974 515.098,282.974 		"/>
	</g>
	<g>
		<polygon fill="#CBB372" points="520.914,301.046 520.914,282.974 540.296,282.974 540.296,291.433 		"/>
	</g>
</g>
<path fill="#CBB372" d="M516.958,310.366l-1.771-0.7c-1.189-0.474-29.462-11.827-58.125-36.569
	c-38.216-32.998-57.859-73.662-57.859-118.465V67.827l9.291,0.418v86.803c0,94.431,94.235,138.656,108.467,144.906
	c14.219-6.266,109.02-51.895,109.02-146.202V67.827h9.292v86.344c0,44.805-20.198,85.928-58.417,118.926
	c-28.659,24.742-56.932,36.097-58.119,36.569L516.958,310.366z"/>
<path fill="#CBB372" d="M517.037,329.495l-1.062-0.42c-1.359-0.542-34.137-12.76-66.958-41.096
	c-30.407-26.254-65.72-70.395-65.72-134.868V68.936h5.779v84.175c0,62.289,34.225,105.026,63.719,130.491
	c28.816,24.879,58.377,37.163,64.242,39.652c5.875-2.498,34.603-14.845,63.426-39.77c29.435-25.449,64.52-68.85,64.52-131.066
	V68.245h5.781v84.174c0,64.475-36.248,109.307-66.658,135.561c-32.818,28.336-64.645,40.554-66,41.096L517.037,329.495z"/>
<g>
	<rect x="383.296" y="64.411" fill="#CBB372" width="267.479" height="15.046"/>
</g>
<g>
	<rect x="383.296" y="42.63" fill="#CBB372" width="267.479" height="11.629"/>
</g>
<path fill="#006838" d="M488.326,153.802"/>
<path fill="#CBB372" d="M583.888,260.412l-67.41-39.718l-66.542,39.718c0,0-5.883-8.274-9.504-11.664
	c-20.188-18.892-32.021-67.481-32.021-67.481l10.842-11.562l16.373-2.888l14.802-17.218l9.28,7.265l10.658,5.853l13.26-17.092
	c0,0,13.408-12.837,20.306-20.467c0.729-0.805,2.335-3.08,2.335-3.08l16.052,12.95l27.118,13.334l8.391,8.764l7.532,0.757
	l14.111-9.365l5.126,4.455l10.925,11.918l11.884,0.961l9.309,13.807l12.41,1.927l-19.653,46.821l-22.494,28.145L583.888,260.412z
	 M418.191,209.069l12.866-4.059l-8.493,10.114l17.24,12.693l15.41,3.055l14.976-8.835l34.497-16.029l20.21-1.264l7.69-1.549
	l4.182-7.484l-14.725-8.074l-9.373-1.25l16.07-7.369l-12.99-16.537l-12.879,3.139l-11.324,6.242l3.877-4.493l8.469-19.618l3.48-8.06
	l-1.078-4.368l-4.284,2.528l-13.687,12.909l-13.875,19.212l-11.839,10.785l-17,10.351l12.097-14.957l-2.426-9.328l-4.591-7.723
	c0,0-4.444,5.513-6.543,7.83c-2.103,2.323-6.524,6.741-6.524,6.741l-9.233,2.37l-7.043,3.135l-2.567,7.12l-7.637,12.979
	L418.191,209.069z M625.608,191.246l-18.64-7.022l-4.342-5.904l-6.744,0.246l-17.055-20.095l-13.809,12.52l10.598,10.918
	l26.328,9.339L618,211.769L625.608,191.246z M569.371,220.95h-21.32v12.09l21.406,13.087L569.371,220.95z"/>
<path fill="#CBB372" d="M644.962,44.568h-256.27l0.034-11.976h256.235 M650.777,27.123h-267.48v23.259l267.479-1.074"/>
<path fill="#CBB372" d="M645.296,21.494h-8v-6h8V21.494z M629.296,21.494h-8v-6h8V21.494z M614.296,21.494h-8v-6h8V21.494z
	 M598.296,21.494h-8v-6h8V21.494z M583.296,21.494h-8v-6h8V21.494z M567.296,21.494h-8v-6h8V21.494z M552.296,21.494h-8v-6h8V21.494
	z M536.296,21.494h-8v-6h8V21.494z M521.296,21.494h-8v-6h8V21.494z M505.296,21.494h-8v-6h8V21.494z M490.296,21.494h-8v-6h8
	V21.494z M474.296,21.494h-8v-6h8V21.494z M459.296,21.494h-8v-6h8V21.494z M443.296,21.494h-8v-6h8V21.494z M428.296,21.494h-8v-6
	h8V21.494z M412.296,21.494h-8v-6h8V21.494z M397.296,21.494h-8v-6h8V21.494z"/>
<text transform="matrix(1 0 0 1 -149.103 -134.2441)" fill="#86754D" font-family="'Woodshop'" font-size="23.4909">UNIVERSITy</text>
<text transform="matrix(1 0 0 1 -149.0044 -111.7441)" fill="#86754D" font-family="'Woodshop'" font-size="25.229">HIGHLANDS</text>
<path fill="#CBB372" d="M570.935,92.213l-4.176,22.014l-4.76,9.044l4.52,0.602l-5.114,11.979l3.71,1.578l-4.668,16.373h5.59
	l0.965,6.189l17.266-8.877l3.302-2.344l-5.005-8.923l5.005-2.49l-8.995-17.139l4.93-1.285l-4.756-6.859L570.935,92.213
	L570.935,92.213z M577.425,136.062l-1.998,1.537l0.132,13.515l-4.86,3.226l-0.406-7.109l-2.812,1.54l3.377-15.066l-2.245-0.522
	l2.124-12.824l-1.729-0.682l2.785-3.997l0.662-6.172L577.425,136.062z"/>
<path fill="#86754D" d="M489.757,139.666"/>
<text transform="matrix(0.9965 0 0 1 -324.7031 -136)" fill="#86754D" font-family="'Gotham-Bold'" font-size="19.7785">UNIVERSITY</text>
<text transform="matrix(1.041 0 0 1 -325.7031 -119)" fill="#86754D" font-family="'Gotham-Bold'" font-size="19.4827">HIGHLANDS</text>
<g>
	<g>
		<g>
			<path fill="#29ABE2" d="M168.863,292.01L76.096,119.116c0,0,2.623-2.624,7.154-6.2c4.054-3.338,9.062-6.915,9.062-6.915
				l87.757,161.925L168.863,292.01z"/>
		</g>
	</g>
	<g>
		<g>
			<path fill="#29ABE2" d="M168.863,292.01l-2.384-39.349l0.237-0.475l92.291-177.665c0,0,5.244,0.716,10.253,1.908
				c6.441,1.669,10.018,3.578,10.018,3.578L168.863,292.01z"/>
		</g>
	</g>
	<path fill="#29ABE2" d="M290.485,58.306C216.32,33.027,128.799,45.666,64.888,99.084l-23.61-43.402
		c75.837-50.557,177.904-50.557,251.594-2.146L290.485,58.306z"/>
</g>
</svg>
